<?xml version="1.0" encoding="UTF-8"?>
<svg xmlns="http://www.w3.org/2000/svg" viewBox="-497.7455 -497.74557 2702.44 2702.44">
<path stroke="#DCB35C" stroke-linecap="round" stroke-width="352.5" fill="none" d="M 0 0 L 253.55554 -67.93994 M 0 0 L -67.93998 -253.5556 M 0 0 L -253.55551 -67.94008 M 0 0 L 185.61566 185.61551 M 0 0 L -67.93989 253.55548 M 253.55554 -67.93994 L 0 0 M 253.55554 -67.93994 L 507.11105 0.000054761767 M 253.55554 -67.93994 L 439.17105 -253.5555 M 253.55554 -67.93994 L 185.61555 -321.49557 M 253.55554 -67.93994 L 185.61566 185.61551 M 507.11105 0.000054761767 L 253.55554 -67.93994 M 507.11105 0.000054761767 L 439.17105 -253.5555 M 507.11105 0.000054761767 L 439.17117 253.55557 M 507.11105 0.000054761767 L 760.6666 -67.93994 M 507.11105 0.000054761767 L 692.72675 185.61551 M 439.17105 -253.5555 L 253.55554 -67.93994 M 439.17105 -253.5555 L 507.11105 0.000054761767 M 439.17105 -253.5555 L 185.61555 -321.49557 M 439.17105 -253.5555 L 692.7266 -321.49557 M 185.61555 -321.49557 L 253.55554 -67.93994 M 185.61555 -321.49557 L 439.17105 -253.5555 M 185.61555 -321.49557 L -67.93998 -253.5556 M -67.93998 -253.5556 L 0 0 M -67.93998 -253.5556 L 185.61555 -321.49557 M -67.93998 -253.5556 L -253.55551 -67.94008 M -253.55551 -67.94008 L 0 0 M -253.55551 -67.94008 L -67.93998 -253.5556 M -253.55551 -67.94008 L -321.4955 185.61545 M -321.4955 185.61545 L -253.55551 -67.94008 M -321.4955 185.61545 L -253.5555 439.17096 M -321.4955 185.61545 L -67.93989 253.55548 M -253.5555 439.17096 L -321.4955 185.61545 M -253.5555 439.17096 L 0.00003129244 507.111 M -253.5555 439.17096 L -67.93989 253.55548 M -253.5555 439.17096 L -321.4955 692.72644 M 0.00003129244 507.111 L -253.5555 439.17096 M 0.00003129244 507.111 L 253.55557 439.17102 M 0.00003129244 507.111 L -67.93989 253.55548 M 0.00003129244 507.111 L 185.61566 692.7266 M 0.00003129244 507.111 L -67.93989 760.66656 M 253.55557 439.17102 L 0.00003129244 507.111 M 253.55557 439.17102 L 439.17117 253.55557 M 253.55557 439.17102 L 185.61566 185.61551 M 253.55557 439.17102 L 507.11108 507.111 M 253.55557 439.17102 L 185.61566 692.7266 M 439.17117 253.55557 L 507.11105 0.000054761767 M 439.17117 253.55557 L 253.55557 439.17102 M 439.17117 253.55557 L 185.61566 185.61551 M 439.17117 253.55557 L 507.11108 507.111 M 439.17117 253.55557 L 692.72675 185.61551 M 185.61566 185.61551 L 0 0 M 185.61566 185.61551 L 253.55554 -67.93994 M 185.61566 185.61551 L 253.55557 439.17102 M 185.61566 185.61551 L 439.17117 253.55557 M 185.61566 185.61551 L -67.93989 253.55548 M -67.93989 253.55548 L 0 0 M -67.93989 253.55548 L -321.4955 185.61545 M -67.93989 253.55548 L -253.5555 439.17096 M -67.93989 253.55548 L 0.00003129244 507.111 M -67.93989 253.55548 L 185.61566 185.61551 M 760.6666 -67.93994 L 507.11105 0.000054761767 M 760.6666 -67.93994 L 1014.2221 0.000054761767 M 760.6666 -67.93994 L 946.28204 -253.5555 M 760.6666 -67.93994 L 692.7266 -321.49557 M 760.6666 -67.93994 L 692.72675 185.61551 M 1014.2221 0.000054761767 L 760.6666 -67.93994 M 1014.2221 0.000054761767 L 946.28204 -253.5555 M 1014.2221 0.000054761767 L 946.2822 253.55557 M 1014.2221 0.000054761767 L 1267.7776 -67.93994 M 1014.2221 0.000054761767 L 1199.8378 185.61551 M 946.28204 -253.5555 L 760.6666 -67.93994 M 946.28204 -253.5555 L 1014.2221 0.000054761767 M 946.28204 -253.5555 L 692.7266 -321.49557 M 946.28204 -253.5555 L 1199.8378 -321.49557 M 692.7266 -321.49557 L 439.17105 -253.5555 M 692.7266 -321.49557 L 760.6666 -67.93994 M 692.7266 -321.49557 L 946.28204 -253.5555 M 507.11108 507.111 L 253.55557 439.17102 M 507.11108 507.111 L 439.17117 253.55557 M 507.11108 507.111 L 760.6666 439.17102 M 507.11108 507.111 L 439.17117 760.6666 M 507.11108 507.111 L 692.72675 692.7266 M 760.6666 439.17102 L 507.11108 507.111 M 760.6666 439.17102 L 946.2822 253.55557 M 760.6666 439.17102 L 692.72675 185.61551 M 760.6666 439.17102 L 1014.2221 507.111 M 760.6666 439.17102 L 692.72675 692.7266 M 946.2822 253.55557 L 1014.2221 0.000054761767 M 946.2822 253.55557 L 760.6666 439.17102 M 946.2822 253.55557 L 692.72675 185.61551 M 946.2822 253.55557 L 1014.2221 507.111 M 946.2822 253.55557 L 1199.8378 185.61551 M 692.72675 185.61551 L 507.11105 0.000054761767 M 692.72675 185.61551 L 439.17117 253.55557 M 692.72675 185.61551 L 760.6666 -67.93994 M 692.72675 185.61551 L 760.6666 439.17102 M 692.72675 185.61551 L 946.2822 253.55557 M 1267.7776 -67.93994 L 1014.2221 0.000054761767 M 1267.7776 -67.93994 L 1521.3333 0.000054761767 M 1267.7776 -67.93994 L 1453.3932 -253.5555 M 1267.7776 -67.93994 L 1199.8378 -321.49557 M 1267.7776 -67.93994 L 1199.8378 185.61551 M 1521.3333 0.000054761767 L 1267.7776 -67.93994 M 1521.3333 0.000054761767 L 1453.3932 -253.5555 M 1521.3333 0.000054761767 L 1453.3933 253.55557 M 1521.3333 0.000054761767 L 1774.8887 -67.93994 M 1521.3333 0.000054761767 L 1706.9489 185.61551 M 1453.3932 -253.5555 L 1267.7776 -67.93994 M 1453.3932 -253.5555 L 1521.3333 0.000054761767 M 1453.3932 -253.5555 L 1199.8378 -321.49557 M 1453.3932 -253.5555 L 1706.9489 -321.49557 M 1199.8378 -321.49557 L 946.28204 -253.5555 M 1199.8378 -321.49557 L 1267.7776 -67.93994 M 1199.8378 -321.49557 L 1453.3932 -253.5555 M 1014.2221 507.111 L 760.6666 439.17102 M 1014.2221 507.111 L 946.2822 253.55557 M 1014.2221 507.111 L 1267.7778 439.17102 M 1014.2221 507.111 L 946.2822 760.6666 M 1014.2221 507.111 L 1199.8378 692.7266 M 1267.7778 439.17102 L 1014.2221 507.111 M 1267.7778 439.17102 L 1453.3933 253.55557 M 1267.7778 439.17102 L 1199.8378 185.61551 M 1267.7778 439.17102 L 1521.3333 507.111 M 1267.7778 439.17102 L 1199.8378 692.7266 M 1453.3933 253.55557 L 1521.3333 0.000054761767 M 1453.3933 253.55557 L 1267.7778 439.17102 M 1453.3933 253.55557 L 1199.8378 185.61551 M 1453.3933 253.55557 L 1521.3333 507.111 M 1453.3933 253.55557 L 1706.9489 185.61551 M 1199.8378 185.61551 L 1014.2221 0.000054761767 M 1199.8378 185.61551 L 946.2822 253.55557 M 1199.8378 185.61551 L 1267.7776 -67.93994 M 1199.8378 185.61551 L 1267.7778 439.17102 M 1199.8378 185.61551 L 1453.3933 253.55557 M 1774.8887 -67.93994 L 1521.3333 0.000054761767 M 1774.8887 -67.93994 L 2028.4442 0.000054761767 M 1774.8887 -67.93994 L 1960.5043 -253.5555 M 1774.8887 -67.93994 L 1706.9489 -321.49557 M 1774.8887 -67.93994 L 1706.9489 185.61551 M 2028.4442 0.000054761767 L 1774.8887 -67.93994 M 2028.4442 0.000054761767 L 1960.5043 -253.5555 M 2028.4442 0.000054761767 L 1960.5043 253.55557 M 1960.5043 -253.5555 L 1774.8887 -67.93994 M 1960.5043 -253.5555 L 2028.4442 0.000054761767 M 1960.5043 -253.5555 L 1706.9489 -321.49557 M 1706.9489 -321.49557 L 1453.3932 -253.5555 M 1706.9489 -321.49557 L 1774.8887 -67.93994 M 1706.9489 -321.49557 L 1960.5043 -253.5555 M 1521.3333 507.111 L 1267.7778 439.17102 M 1521.3333 507.111 L 1453.3933 253.55557 M 1521.3333 507.111 L 1774.8888 439.17102 M 1521.3333 507.111 L 1453.3933 760.6666 M 1521.3333 507.111 L 1706.9489 692.7266 M 1774.8888 439.17102 L 1521.3333 507.111 M 1774.8888 439.17102 L 1960.5043 253.55557 M 1774.8888 439.17102 L 1706.9489 185.61551 M 1774.8888 439.17102 L 2028.4442 507.11108 M 1774.8888 439.17102 L 1706.9489 692.7266 M 1960.5043 253.55557 L 2028.4442 0.000054761767 M 1960.5043 253.55557 L 1774.8888 439.17102 M 1960.5043 253.55557 L 1706.9489 185.61551 M 1960.5043 253.55557 L 2028.4442 507.11108 M 1706.9489 185.61551 L 1521.3333 0.000054761767 M 1706.9489 185.61551 L 1453.3933 253.55557 M 1706.9489 185.61551 L 1774.8887 -67.93994 M 1706.9489 185.61551 L 1774.8888 439.17102 M 1706.9489 185.61551 L 1960.5043 253.55557 M -321.4955 692.72644 L -253.5555 439.17096 M -321.4955 692.72644 L -253.5555 946.28204 M -321.4955 692.72644 L -67.93989 760.66656 M -253.5555 946.28204 L -321.4955 692.72644 M -253.5555 946.28204 L 0.00003129244 1014.22205 M -253.5555 946.28204 L -67.93989 760.66656 M -253.5555 946.28204 L -321.4955 1199.8375 M 0.00003129244 1014.22205 L -253.5555 946.28204 M 0.00003129244 1014.22205 L 253.55557 946.28204 M 0.00003129244 1014.22205 L -67.93989 760.66656 M 0.00003129244 1014.22205 L 185.61566 1199.8375 M 0.00003129244 1014.22205 L -67.93989 1267.7776 M 253.55557 946.28204 L 0.00003129244 1014.22205 M 253.55557 946.28204 L 439.17117 760.6666 M 253.55557 946.28204 L 185.61566 692.7266 M 253.55557 946.28204 L 507.11108 1014.22205 M 253.55557 946.28204 L 185.61566 1199.8375 M 439.17117 760.6666 L 507.11108 507.111 M 439.17117 760.6666 L 253.55557 946.28204 M 439.17117 760.6666 L 185.61566 692.7266 M 439.17117 760.6666 L 507.11108 1014.22205 M 439.17117 760.6666 L 692.72675 692.7266 M 185.61566 692.7266 L 0.00003129244 507.111 M 185.61566 692.7266 L 253.55557 439.17102 M 185.61566 692.7266 L 253.55557 946.28204 M 185.61566 692.7266 L 439.17117 760.6666 M 185.61566 692.7266 L -67.93989 760.66656 M -67.93989 760.66656 L 0.00003129244 507.111 M -67.93989 760.66656 L -321.4955 692.72644 M -67.93989 760.66656 L -253.5555 946.28204 M -67.93989 760.66656 L 0.00003129244 1014.22205 M -67.93989 760.66656 L 185.61566 692.7266 M 507.11108 1014.22205 L 253.55557 946.28204 M 507.11108 1014.22205 L 439.17117 760.6666 M 507.11108 1014.22205 L 760.6666 946.28204 M 507.11108 1014.22205 L 439.17117 1267.7778 M 507.11108 1014.22205 L 692.72675 1199.8375 M 760.6666 946.28204 L 507.11108 1014.22205 M 760.6666 946.28204 L 946.2822 760.6666 M 760.6666 946.28204 L 692.72675 692.7266 M 760.6666 946.28204 L 1014.2221 1014.22205 M 760.6666 946.28204 L 692.72675 1199.8375 M 946.2822 760.6666 L 1014.2221 507.111 M 946.2822 760.6666 L 760.6666 946.28204 M 946.2822 760.6666 L 692.72675 692.7266 M 946.2822 760.6666 L 1014.2221 1014.22205 M 946.2822 760.6666 L 1199.8378 692.7266 M 692.72675 692.7266 L 507.11108 507.111 M 692.72675 692.7266 L 760.6666 439.17102 M 692.72675 692.7266 L 439.17117 760.6666 M 692.72675 692.7266 L 760.6666 946.28204 M 692.72675 692.7266 L 946.2822 760.6666 M 1014.2221 1014.22205 L 760.6666 946.28204 M 1014.2221 1014.22205 L 946.2822 760.6666 M 1014.2221 1014.22205 L 1267.7778 946.28204 M 1014.2221 1014.22205 L 946.2822 1267.7778 M 1014.2221 1014.22205 L 1199.8378 1199.8375 M 1267.7778 946.28204 L 1014.2221 1014.22205 M 1267.7778 946.28204 L 1453.3933 760.6666 M 1267.7778 946.28204 L 1199.8378 692.7266 M 1267.7778 946.28204 L 1521.3333 1014.22205 M 1267.7778 946.28204 L 1199.8378 1199.8375 M 1453.3933 760.6666 L 1521.3333 507.111 M 1453.3933 760.6666 L 1267.7778 946.28204 M 1453.3933 760.6666 L 1199.8378 692.7266 M 1453.3933 760.6666 L 1521.3333 1014.22205 M 1453.3933 760.6666 L 1706.9489 692.7266 M 1199.8378 692.7266 L 1014.2221 507.111 M 1199.8378 692.7266 L 1267.7778 439.17102 M 1199.8378 692.7266 L 946.2822 760.6666 M 1199.8378 692.7266 L 1267.7778 946.28204 M 1199.8378 692.7266 L 1453.3933 760.6666 M 2028.4442 507.11108 L 1774.8888 439.17102 M 2028.4442 507.11108 L 1960.5043 253.55557 M 2028.4442 507.11108 L 1960.5043 760.6666 M 1521.3333 1014.22205 L 1267.7778 946.28204 M 1521.3333 1014.22205 L 1453.3933 760.6666 M 1521.3333 1014.22205 L 1774.8888 946.28204 M 1521.3333 1014.22205 L 1453.3933 1267.7778 M 1521.3333 1014.22205 L 1706.9489 1199.8375 M 1774.8888 946.28204 L 1521.3333 1014.22205 M 1774.8888 946.28204 L 1960.5043 760.6666 M 1774.8888 946.28204 L 1706.9489 692.7266 M 1774.8888 946.28204 L 2028.4442 1014.22217 M 1774.8888 946.28204 L 1706.9489 1199.8375 M 1960.5043 760.6666 L 2028.4442 507.11108 M 1960.5043 760.6666 L 1774.8888 946.28204 M 1960.5043 760.6666 L 1706.9489 692.7266 M 1960.5043 760.6666 L 2028.4442 1014.22217 M 1706.9489 692.7266 L 1521.3333 507.111 M 1706.9489 692.7266 L 1774.8888 439.17102 M 1706.9489 692.7266 L 1453.3933 760.6666 M 1706.9489 692.7266 L 1774.8888 946.28204 M 1706.9489 692.7266 L 1960.5043 760.6666 M -321.4955 1199.8375 L -253.5555 946.28204 M -321.4955 1199.8375 L -253.5555 1453.3931 M -321.4955 1199.8375 L -67.93989 1267.7776 M -253.5555 1453.3931 L -321.4955 1199.8375 M -253.5555 1453.3931 L 0.00003129244 1521.3331 M -253.5555 1453.3931 L -67.93989 1267.7776 M -253.5555 1453.3931 L -321.4955 1706.9486 M 0.00003129244 1521.3331 L -253.5555 1453.3931 M 0.00003129244 1521.3331 L 253.55557 1453.3931 M 0.00003129244 1521.3331 L -67.93989 1267.7776 M 0.00003129244 1521.3331 L 185.61566 1706.9486 M 0.00003129244 1521.3331 L -67.93989 1774.8887 M 253.55557 1453.3931 L 0.00003129244 1521.3331 M 253.55557 1453.3931 L 439.17117 1267.7778 M 253.55557 1453.3931 L 185.61566 1199.8375 M 253.55557 1453.3931 L 507.11108 1521.3331 M 253.55557 1453.3931 L 185.61566 1706.9486 M 439.17117 1267.7778 L 507.11108 1014.22205 M 439.17117 1267.7778 L 253.55557 1453.3931 M 439.17117 1267.7778 L 185.61566 1199.8375 M 439.17117 1267.7778 L 507.11108 1521.3331 M 439.17117 1267.7778 L 692.72675 1199.8375 M 185.61566 1199.8375 L 0.00003129244 1014.22205 M 185.61566 1199.8375 L 253.55557 946.28204 M 185.61566 1199.8375 L 253.55557 1453.3931 M 185.61566 1199.8375 L 439.17117 1267.7778 M 185.61566 1199.8375 L -67.93989 1267.7776 M -67.93989 1267.7776 L 0.00003129244 1014.22205 M -67.93989 1267.7776 L -321.4955 1199.8375 M -67.93989 1267.7776 L -253.5555 1453.3931 M -67.93989 1267.7776 L 0.00003129244 1521.3331 M -67.93989 1267.7776 L 185.61566 1199.8375 M 507.11108 1521.3331 L 253.55557 1453.3931 M 507.11108 1521.3331 L 439.17117 1267.7778 M 507.11108 1521.3331 L 760.6666 1453.3931 M 507.11108 1521.3331 L 439.17117 1774.8888 M 507.11108 1521.3331 L 692.72675 1706.9486 M 760.6666 1453.3931 L 507.11108 1521.3331 M 760.6666 1453.3931 L 946.2822 1267.7778 M 760.6666 1453.3931 L 692.72675 1199.8375 M 760.6666 1453.3931 L 1014.2221 1521.3331 M 760.6666 1453.3931 L 692.72675 1706.9486 M 946.2822 1267.7778 L 1014.2221 1014.22205 M 946.2822 1267.7778 L 760.6666 1453.3931 M 946.2822 1267.7778 L 692.72675 1199.8375 M 946.2822 1267.7778 L 1014.2221 1521.3331 M 946.2822 1267.7778 L 1199.8378 1199.8375 M 692.72675 1199.8375 L 507.11108 1014.22205 M 692.72675 1199.8375 L 760.6666 946.28204 M 692.72675 1199.8375 L 439.17117 1267.7778 M 692.72675 1199.8375 L 760.6666 1453.3931 M 692.72675 1199.8375 L 946.2822 1267.7778 M 1014.2221 1521.3331 L 760.6666 1453.3931 M 1014.2221 1521.3331 L 946.2822 1267.7778 M 1014.2221 1521.3331 L 1267.7778 1453.3931 M 1014.2221 1521.3331 L 946.2822 1774.8888 M 1014.2221 1521.3331 L 1199.8378 1706.9486 M 1267.7778 1453.3931 L 1014.2221 1521.3331 M 1267.7778 1453.3931 L 1453.3933 1267.7778 M 1267.7778 1453.3931 L 1199.8378 1199.8375 M 1267.7778 1453.3931 L 1521.3333 1521.3331 M 1267.7778 1453.3931 L 1199.8378 1706.9486 M 1453.3933 1267.7778 L 1521.3333 1014.22205 M 1453.3933 1267.7778 L 1267.7778 1453.3931 M 1453.3933 1267.7778 L 1199.8378 1199.8375 M 1453.3933 1267.7778 L 1521.3333 1521.3331 M 1453.3933 1267.7778 L 1706.9489 1199.8375 M 1199.8378 1199.8375 L 1014.2221 1014.22205 M 1199.8378 1199.8375 L 1267.7778 946.28204 M 1199.8378 1199.8375 L 946.2822 1267.7778 M 1199.8378 1199.8375 L 1267.7778 1453.3931 M 1199.8378 1199.8375 L 1453.3933 1267.7778 M 2028.4442 1014.22217 L 1774.8888 946.28204 M 2028.4442 1014.22217 L 1960.5043 760.6666 M 2028.4442 1014.22217 L 1960.5043 1267.7778 M 1521.3333 1521.3331 L 1267.7778 1453.3931 M 1521.3333 1521.3331 L 1453.3933 1267.7778 M 1521.3333 1521.3331 L 1774.8888 1453.3931 M 1521.3333 1521.3331 L 1453.3933 1774.8888 M 1521.3333 1521.3331 L 1706.9489 1706.9486 M 1774.8888 1453.3931 L 1521.3333 1521.3331 M 1774.8888 1453.3931 L 1960.5043 1267.7778 M 1774.8888 1453.3931 L 1706.9489 1199.8375 M 1774.8888 1453.3931 L 2028.4442 1521.3333 M 1774.8888 1453.3931 L 1706.9489 1706.9486 M 1960.5043 1267.7778 L 2028.4442 1014.22217 M 1960.5043 1267.7778 L 1774.8888 1453.3931 M 1960.5043 1267.7778 L 1706.9489 1199.8375 M 1960.5043 1267.7778 L 2028.4442 1521.3333 M 1706.9489 1199.8375 L 1521.3333 1014.22205 M 1706.9489 1199.8375 L 1774.8888 946.28204 M 1706.9489 1199.8375 L 1453.3933 1267.7778 M 1706.9489 1199.8375 L 1774.8888 1453.3931 M 1706.9489 1199.8375 L 1960.5043 1267.7778 M -321.4955 1706.9486 L -253.5555 1453.3931 M -321.4955 1706.9486 L -253.5555 1960.5043 M -321.4955 1706.9486 L -67.93989 1774.8887 M -253.5555 1960.5043 L -321.4955 1706.9486 M -253.5555 1960.5043 L 0.00003129244 2028.4442 M -253.5555 1960.5043 L -67.93989 1774.8887 M 0.00003129244 2028.4442 L -253.5555 1960.5043 M 0.00003129244 2028.4442 L 253.55557 1960.5043 M 0.00003129244 2028.4442 L -67.93989 1774.8887 M 253.55557 1960.5043 L 0.00003129244 2028.4442 M 253.55557 1960.5043 L 439.17117 1774.8888 M 253.55557 1960.5043 L 185.61566 1706.9486 M 253.55557 1960.5043 L 507.11108 2028.4442 M 439.17117 1774.8888 L 507.11108 1521.3331 M 439.17117 1774.8888 L 253.55557 1960.5043 M 439.17117 1774.8888 L 185.61566 1706.9486 M 439.17117 1774.8888 L 507.11108 2028.4442 M 439.17117 1774.8888 L 692.72675 1706.9486 M 185.61566 1706.9486 L 0.00003129244 1521.3331 M 185.61566 1706.9486 L 253.55557 1453.3931 M 185.61566 1706.9486 L 253.55557 1960.5043 M 185.61566 1706.9486 L 439.17117 1774.8888 M 185.61566 1706.9486 L -67.93989 1774.8887 M -67.93989 1774.8887 L 0.00003129244 1521.3331 M -67.93989 1774.8887 L -321.4955 1706.9486 M -67.93989 1774.8887 L -253.5555 1960.5043 M -67.93989 1774.8887 L 0.00003129244 2028.4442 M -67.93989 1774.8887 L 185.61566 1706.9486 M 507.11108 2028.4442 L 253.55557 1960.5043 M 507.11108 2028.4442 L 439.17117 1774.8888 M 507.11108 2028.4442 L 760.6666 1960.5043 M 760.6666 1960.5043 L 507.11108 2028.4442 M 760.6666 1960.5043 L 946.2822 1774.8888 M 760.6666 1960.5043 L 692.72675 1706.9486 M 760.6666 1960.5043 L 1014.2221 2028.4442 M 946.2822 1774.8888 L 1014.2221 1521.3331 M 946.2822 1774.8888 L 760.6666 1960.5043 M 946.2822 1774.8888 L 692.72675 1706.9486 M 946.2822 1774.8888 L 1014.2221 2028.4442 M 946.2822 1774.8888 L 1199.8378 1706.9486 M 692.72675 1706.9486 L 507.11108 1521.3331 M 692.72675 1706.9486 L 760.6666 1453.3931 M 692.72675 1706.9486 L 439.17117 1774.8888 M 692.72675 1706.9486 L 760.6666 1960.5043 M 692.72675 1706.9486 L 946.2822 1774.8888 M 1014.2221 2028.4442 L 760.6666 1960.5043 M 1014.2221 2028.4442 L 946.2822 1774.8888 M 1014.2221 2028.4442 L 1267.7778 1960.5043 M 1267.7778 1960.5043 L 1014.2221 2028.4442 M 1267.7778 1960.5043 L 1453.3933 1774.8888 M 1267.7778 1960.5043 L 1199.8378 1706.9486 M 1267.7778 1960.5043 L 1521.3333 2028.4442 M 1453.3933 1774.8888 L 1521.3333 1521.3331 M 1453.3933 1774.8888 L 1267.7778 1960.5043 M 1453.3933 1774.8888 L 1199.8378 1706.9486 M 1453.3933 1774.8888 L 1521.3333 2028.4442 M 1453.3933 1774.8888 L 1706.9489 1706.9486 M 1199.8378 1706.9486 L 1014.2221 1521.3331 M 1199.8378 1706.9486 L 1267.7778 1453.3931 M 1199.8378 1706.9486 L 946.2822 1774.8888 M 1199.8378 1706.9486 L 1267.7778 1960.5043 M 1199.8378 1706.9486 L 1453.3933 1774.8888 M 2028.4442 1521.3333 L 1774.8888 1453.3931 M 2028.4442 1521.3333 L 1960.5043 1267.7778 M 2028.4442 1521.3333 L 1960.5043 1774.8888 M 1521.3333 2028.4442 L 1267.7778 1960.5043 M 1521.3333 2028.4442 L 1453.3933 1774.8888 M 1521.3333 2028.4442 L 1774.8888 1960.5043 M 1774.8888 1960.5043 L 1521.3333 2028.4442 M 1774.8888 1960.5043 L 1960.5043 1774.8888 M 1774.8888 1960.5043 L 1706.9489 1706.9486 M 1960.5043 1774.8888 L 2028.4442 1521.3333 M 1960.5043 1774.8888 L 1774.8888 1960.5043 M 1960.5043 1774.8888 L 1706.9489 1706.9486 M 1706.9489 1706.9486 L 1521.3333 1521.3331 M 1706.9489 1706.9486 L 1774.8888 1453.3931 M 1706.9489 1706.9486 L 1453.3933 1774.8888 M 1706.9489 1706.9486 L 1774.8888 1960.5043 M 1706.9489 1706.9486 L 1960.5043 1774.8888 "/>
<path stroke="#000" stroke-linecap="round" stroke-width="9.375" fill="none" d="M 0 0 L 253.55554 -67.93994 M 0 0 L -67.93998 -253.5556 M 0 0 L -253.55551 -67.94008 M 0 0 L 185.61566 185.61551 M 0 0 L -67.93989 253.55548 M 253.55554 -67.93994 L 0 0 M 253.55554 -67.93994 L 507.11105 0.000054761767 M 253.55554 -67.93994 L 439.17105 -253.5555 M 253.55554 -67.93994 L 185.61555 -321.49557 M 253.55554 -67.93994 L 185.61566 185.61551 M 507.11105 0.000054761767 L 253.55554 -67.93994 M 507.11105 0.000054761767 L 439.17105 -253.5555 M 507.11105 0.000054761767 L 439.17117 253.55557 M 507.11105 0.000054761767 L 760.6666 -67.93994 M 507.11105 0.000054761767 L 692.72675 185.61551 M 439.17105 -253.5555 L 253.55554 -67.93994 M 439.17105 -253.5555 L 507.11105 0.000054761767 M 439.17105 -253.5555 L 185.61555 -321.49557 M 439.17105 -253.5555 L 692.7266 -321.49557 M 185.61555 -321.49557 L 253.55554 -67.93994 M 185.61555 -321.49557 L 439.17105 -253.5555 M 185.61555 -321.49557 L -67.93998 -253.5556 M -67.93998 -253.5556 L 0 0 M -67.93998 -253.5556 L 185.61555 -321.49557 M -67.93998 -253.5556 L -253.55551 -67.94008 M -253.55551 -67.94008 L 0 0 M -253.55551 -67.94008 L -67.93998 -253.5556 M -253.55551 -67.94008 L -321.4955 185.61545 M -321.4955 185.61545 L -253.55551 -67.94008 M -321.4955 185.61545 L -253.5555 439.17096 M -321.4955 185.61545 L -67.93989 253.55548 M -253.5555 439.17096 L -321.4955 185.61545 M -253.5555 439.17096 L 0.00003129244 507.111 M -253.5555 439.17096 L -67.93989 253.55548 M -253.5555 439.17096 L -321.4955 692.72644 M 0.00003129244 507.111 L -253.5555 439.17096 M 0.00003129244 507.111 L 253.55557 439.17102 M 0.00003129244 507.111 L -67.93989 253.55548 M 0.00003129244 507.111 L 185.61566 692.7266 M 0.00003129244 507.111 L -67.93989 760.66656 M 253.55557 439.17102 L 0.00003129244 507.111 M 253.55557 439.17102 L 439.17117 253.55557 M 253.55557 439.17102 L 185.61566 185.61551 M 253.55557 439.17102 L 507.11108 507.111 M 253.55557 439.17102 L 185.61566 692.7266 M 439.17117 253.55557 L 507.11105 0.000054761767 M 439.17117 253.55557 L 253.55557 439.17102 M 439.17117 253.55557 L 185.61566 185.61551 M 439.17117 253.55557 L 507.11108 507.111 M 439.17117 253.55557 L 692.72675 185.61551 M 185.61566 185.61551 L 0 0 M 185.61566 185.61551 L 253.55554 -67.93994 M 185.61566 185.61551 L 253.55557 439.17102 M 185.61566 185.61551 L 439.17117 253.55557 M 185.61566 185.61551 L -67.93989 253.55548 M -67.93989 253.55548 L 0 0 M -67.93989 253.55548 L -321.4955 185.61545 M -67.93989 253.55548 L -253.5555 439.17096 M -67.93989 253.55548 L 0.00003129244 507.111 M -67.93989 253.55548 L 185.61566 185.61551 M 760.6666 -67.93994 L 507.11105 0.000054761767 M 760.6666 -67.93994 L 1014.2221 0.000054761767 M 760.6666 -67.93994 L 946.28204 -253.5555 M 760.6666 -67.93994 L 692.7266 -321.49557 M 760.6666 -67.93994 L 692.72675 185.61551 M 1014.2221 0.000054761767 L 760.6666 -67.93994 M 1014.2221 0.000054761767 L 946.28204 -253.5555 M 1014.2221 0.000054761767 L 946.2822 253.55557 M 1014.2221 0.000054761767 L 1267.7776 -67.93994 M 1014.2221 0.000054761767 L 1199.8378 185.61551 M 946.28204 -253.5555 L 760.6666 -67.93994 M 946.28204 -253.5555 L 1014.2221 0.000054761767 M 946.28204 -253.5555 L 692.7266 -321.49557 M 946.28204 -253.5555 L 1199.8378 -321.49557 M 692.7266 -321.49557 L 439.17105 -253.5555 M 692.7266 -321.49557 L 760.6666 -67.93994 M 692.7266 -321.49557 L 946.28204 -253.5555 M 507.11108 507.111 L 253.55557 439.17102 M 507.11108 507.111 L 439.17117 253.55557 M 507.11108 507.111 L 760.6666 439.17102 M 507.11108 507.111 L 439.17117 760.6666 M 507.11108 507.111 L 692.72675 692.7266 M 760.6666 439.17102 L 507.11108 507.111 M 760.6666 439.17102 L 946.2822 253.55557 M 760.6666 439.17102 L 692.72675 185.61551 M 760.6666 439.17102 L 1014.2221 507.111 M 760.6666 439.17102 L 692.72675 692.7266 M 946.2822 253.55557 L 1014.2221 0.000054761767 M 946.2822 253.55557 L 760.6666 439.17102 M 946.2822 253.55557 L 692.72675 185.61551 M 946.2822 253.55557 L 1014.2221 507.111 M 946.2822 253.55557 L 1199.8378 185.61551 M 692.72675 185.61551 L 507.11105 0.000054761767 M 692.72675 185.61551 L 439.17117 253.55557 M 692.72675 185.61551 L 760.6666 -67.93994 M 692.72675 185.61551 L 760.6666 439.17102 M 692.72675 185.61551 L 946.2822 253.55557 M 1267.7776 -67.93994 L 1014.2221 0.000054761767 M 1267.7776 -67.93994 L 1521.3333 0.000054761767 M 1267.7776 -67.93994 L 1453.3932 -253.5555 M 1267.7776 -67.93994 L 1199.8378 -321.49557 M 1267.7776 -67.93994 L 1199.8378 185.61551 M 1521.3333 0.000054761767 L 1267.7776 -67.93994 M 1521.3333 0.000054761767 L 1453.3932 -253.5555 M 1521.3333 0.000054761767 L 1453.3933 253.55557 M 1521.3333 0.000054761767 L 1774.8887 -67.93994 M 1521.3333 0.000054761767 L 1706.9489 185.61551 M 1453.3932 -253.5555 L 1267.7776 -67.93994 M 1453.3932 -253.5555 L 1521.3333 0.000054761767 M 1453.3932 -253.5555 L 1199.8378 -321.49557 M 1453.3932 -253.5555 L 1706.9489 -321.49557 M 1199.8378 -321.49557 L 946.28204 -253.5555 M 1199.8378 -321.49557 L 1267.7776 -67.93994 M 1199.8378 -321.49557 L 1453.3932 -253.5555 M 1014.2221 507.111 L 760.6666 439.17102 M 1014.2221 507.111 L 946.2822 253.55557 M 1014.2221 507.111 L 1267.7778 439.17102 M 1014.2221 507.111 L 946.2822 760.6666 M 1014.2221 507.111 L 1199.8378 692.7266 M 1267.7778 439.17102 L 1014.2221 507.111 M 1267.7778 439.17102 L 1453.3933 253.55557 M 1267.7778 439.17102 L 1199.8378 185.61551 M 1267.7778 439.17102 L 1521.3333 507.111 M 1267.7778 439.17102 L 1199.8378 692.7266 M 1453.3933 253.55557 L 1521.3333 0.000054761767 M 1453.3933 253.55557 L 1267.7778 439.17102 M 1453.3933 253.55557 L 1199.8378 185.61551 M 1453.3933 253.55557 L 1521.3333 507.111 M 1453.3933 253.55557 L 1706.9489 185.61551 M 1199.8378 185.61551 L 1014.2221 0.000054761767 M 1199.8378 185.61551 L 946.2822 253.55557 M 1199.8378 185.61551 L 1267.7776 -67.93994 M 1199.8378 185.61551 L 1267.7778 439.17102 M 1199.8378 185.61551 L 1453.3933 253.55557 M 1774.8887 -67.93994 L 1521.3333 0.000054761767 M 1774.8887 -67.93994 L 2028.4442 0.000054761767 M 1774.8887 -67.93994 L 1960.5043 -253.5555 M 1774.8887 -67.93994 L 1706.9489 -321.49557 M 1774.8887 -67.93994 L 1706.9489 185.61551 M 2028.4442 0.000054761767 L 1774.8887 -67.93994 M 2028.4442 0.000054761767 L 1960.5043 -253.5555 M 2028.4442 0.000054761767 L 1960.5043 253.55557 M 1960.5043 -253.5555 L 1774.8887 -67.93994 M 1960.5043 -253.5555 L 2028.4442 0.000054761767 M 1960.5043 -253.5555 L 1706.9489 -321.49557 M 1706.9489 -321.49557 L 1453.3932 -253.5555 M 1706.9489 -321.49557 L 1774.8887 -67.93994 M 1706.9489 -321.49557 L 1960.5043 -253.5555 M 1521.3333 507.111 L 1267.7778 439.17102 M 1521.3333 507.111 L 1453.3933 253.55557 M 1521.3333 507.111 L 1774.8888 439.17102 M 1521.3333 507.111 L 1453.3933 760.6666 M 1521.3333 507.111 L 1706.9489 692.7266 M 1774.8888 439.17102 L 1521.3333 507.111 M 1774.8888 439.17102 L 1960.5043 253.55557 M 1774.8888 439.17102 L 1706.9489 185.61551 M 1774.8888 439.17102 L 2028.4442 507.11108 M 1774.8888 439.17102 L 1706.9489 692.7266 M 1960.5043 253.55557 L 2028.4442 0.000054761767 M 1960.5043 253.55557 L 1774.8888 439.17102 M 1960.5043 253.55557 L 1706.9489 185.61551 M 1960.5043 253.55557 L 2028.4442 507.11108 M 1706.9489 185.61551 L 1521.3333 0.000054761767 M 1706.9489 185.61551 L 1453.3933 253.55557 M 1706.9489 185.61551 L 1774.8887 -67.93994 M 1706.9489 185.61551 L 1774.8888 439.17102 M 1706.9489 185.61551 L 1960.5043 253.55557 M -321.4955 692.72644 L -253.5555 439.17096 M -321.4955 692.72644 L -253.5555 946.28204 M -321.4955 692.72644 L -67.93989 760.66656 M -253.5555 946.28204 L -321.4955 692.72644 M -253.5555 946.28204 L 0.00003129244 1014.22205 M -253.5555 946.28204 L -67.93989 760.66656 M -253.5555 946.28204 L -321.4955 1199.8375 M 0.00003129244 1014.22205 L -253.5555 946.28204 M 0.00003129244 1014.22205 L 253.55557 946.28204 M 0.00003129244 1014.22205 L -67.93989 760.66656 M 0.00003129244 1014.22205 L 185.61566 1199.8375 M 0.00003129244 1014.22205 L -67.93989 1267.7776 M 253.55557 946.28204 L 0.00003129244 1014.22205 M 253.55557 946.28204 L 439.17117 760.6666 M 253.55557 946.28204 L 185.61566 692.7266 M 253.55557 946.28204 L 507.11108 1014.22205 M 253.55557 946.28204 L 185.61566 1199.8375 M 439.17117 760.6666 L 507.11108 507.111 M 439.17117 760.6666 L 253.55557 946.28204 M 439.17117 760.6666 L 185.61566 692.7266 M 439.17117 760.6666 L 507.11108 1014.22205 M 439.17117 760.6666 L 692.72675 692.7266 M 185.61566 692.7266 L 0.00003129244 507.111 M 185.61566 692.7266 L 253.55557 439.17102 M 185.61566 692.7266 L 253.55557 946.28204 M 185.61566 692.7266 L 439.17117 760.6666 M 185.61566 692.7266 L -67.93989 760.66656 M -67.93989 760.66656 L 0.00003129244 507.111 M -67.93989 760.66656 L -321.4955 692.72644 M -67.93989 760.66656 L -253.5555 946.28204 M -67.93989 760.66656 L 0.00003129244 1014.22205 M -67.93989 760.66656 L 185.61566 692.7266 M 507.11108 1014.22205 L 253.55557 946.28204 M 507.11108 1014.22205 L 439.17117 760.6666 M 507.11108 1014.22205 L 760.6666 946.28204 M 507.11108 1014.22205 L 439.17117 1267.7778 M 507.11108 1014.22205 L 692.72675 1199.8375 M 760.6666 946.28204 L 507.11108 1014.22205 M 760.6666 946.28204 L 946.2822 760.6666 M 760.6666 946.28204 L 692.72675 692.7266 M 760.6666 946.28204 L 1014.2221 1014.22205 M 760.6666 946.28204 L 692.72675 1199.8375 M 946.2822 760.6666 L 1014.2221 507.111 M 946.2822 760.6666 L 760.6666 946.28204 M 946.2822 760.6666 L 692.72675 692.7266 M 946.2822 760.6666 L 1014.2221 1014.22205 M 946.2822 760.6666 L 1199.8378 692.7266 M 692.72675 692.7266 L 507.11108 507.111 M 692.72675 692.7266 L 760.6666 439.17102 M 692.72675 692.7266 L 439.17117 760.6666 M 692.72675 692.7266 L 760.6666 946.28204 M 692.72675 692.7266 L 946.2822 760.6666 M 1014.2221 1014.22205 L 760.6666 946.28204 M 1014.2221 1014.22205 L 946.2822 760.6666 M 1014.2221 1014.22205 L 1267.7778 946.28204 M 1014.2221 1014.22205 L 946.2822 1267.7778 M 1014.2221 1014.22205 L 1199.8378 1199.8375 M 1267.7778 946.28204 L 1014.2221 1014.22205 M 1267.7778 946.28204 L 1453.3933 760.6666 M 1267.7778 946.28204 L 1199.8378 692.7266 M 1267.7778 946.28204 L 1521.3333 1014.22205 M 1267.7778 946.28204 L 1199.8378 1199.8375 M 1453.3933 760.6666 L 1521.3333 507.111 M 1453.3933 760.6666 L 1267.7778 946.28204 M 1453.3933 760.6666 L 1199.8378 692.7266 M 1453.3933 760.6666 L 1521.3333 1014.22205 M 1453.3933 760.6666 L 1706.9489 692.7266 M 1199.8378 692.7266 L 1014.2221 507.111 M 1199.8378 692.7266 L 1267.7778 439.17102 M 1199.8378 692.7266 L 946.2822 760.6666 M 1199.8378 692.7266 L 1267.7778 946.28204 M 1199.8378 692.7266 L 1453.3933 760.6666 M 2028.4442 507.11108 L 1774.8888 439.17102 M 2028.4442 507.11108 L 1960.5043 253.55557 M 2028.4442 507.11108 L 1960.5043 760.6666 M 1521.3333 1014.22205 L 1267.7778 946.28204 M 1521.3333 1014.22205 L 1453.3933 760.6666 M 1521.3333 1014.22205 L 1774.8888 946.28204 M 1521.3333 1014.22205 L 1453.3933 1267.7778 M 1521.3333 1014.22205 L 1706.9489 1199.8375 M 1774.8888 946.28204 L 1521.3333 1014.22205 M 1774.8888 946.28204 L 1960.5043 760.6666 M 1774.8888 946.28204 L 1706.9489 692.7266 M 1774.8888 946.28204 L 2028.4442 1014.22217 M 1774.8888 946.28204 L 1706.9489 1199.8375 M 1960.5043 760.6666 L 2028.4442 507.11108 M 1960.5043 760.6666 L 1774.8888 946.28204 M 1960.5043 760.6666 L 1706.9489 692.7266 M 1960.5043 760.6666 L 2028.4442 1014.22217 M 1706.9489 692.7266 L 1521.3333 507.111 M 1706.9489 692.7266 L 1774.8888 439.17102 M 1706.9489 692.7266 L 1453.3933 760.6666 M 1706.9489 692.7266 L 1774.8888 946.28204 M 1706.9489 692.7266 L 1960.5043 760.6666 M -321.4955 1199.8375 L -253.5555 946.28204 M -321.4955 1199.8375 L -253.5555 1453.3931 M -321.4955 1199.8375 L -67.93989 1267.7776 M -253.5555 1453.3931 L -321.4955 1199.8375 M -253.5555 1453.3931 L 0.00003129244 1521.3331 M -253.5555 1453.3931 L -67.93989 1267.7776 M -253.5555 1453.3931 L -321.4955 1706.9486 M 0.00003129244 1521.3331 L -253.5555 1453.3931 M 0.00003129244 1521.3331 L 253.55557 1453.3931 M 0.00003129244 1521.3331 L -67.93989 1267.7776 M 0.00003129244 1521.3331 L 185.61566 1706.9486 M 0.00003129244 1521.3331 L -67.93989 1774.8887 M 253.55557 1453.3931 L 0.00003129244 1521.3331 M 253.55557 1453.3931 L 439.17117 1267.7778 M 253.55557 1453.3931 L 185.61566 1199.8375 M 253.55557 1453.3931 L 507.11108 1521.3331 M 253.55557 1453.3931 L 185.61566 1706.9486 M 439.17117 1267.7778 L 507.11108 1014.22205 M 439.17117 1267.7778 L 253.55557 1453.3931 M 439.17117 1267.7778 L 185.61566 1199.8375 M 439.17117 1267.7778 L 507.11108 1521.3331 M 439.17117 1267.7778 L 692.72675 1199.8375 M 185.61566 1199.8375 L 0.00003129244 1014.22205 M 185.61566 1199.8375 L 253.55557 946.28204 M 185.61566 1199.8375 L 253.55557 1453.3931 M 185.61566 1199.8375 L 439.17117 1267.7778 M 185.61566 1199.8375 L -67.93989 1267.7776 M -67.93989 1267.7776 L 0.00003129244 1014.22205 M -67.93989 1267.7776 L -321.4955 1199.8375 M -67.93989 1267.7776 L -253.5555 1453.3931 M -67.93989 1267.7776 L 0.00003129244 1521.3331 M -67.93989 1267.7776 L 185.61566 1199.8375 M 507.11108 1521.3331 L 253.55557 1453.3931 M 507.11108 1521.3331 L 439.17117 1267.7778 M 507.11108 1521.3331 L 760.6666 1453.3931 M 507.11108 1521.3331 L 439.17117 1774.8888 M 507.11108 1521.3331 L 692.72675 1706.9486 M 760.6666 1453.3931 L 507.11108 1521.3331 M 760.6666 1453.3931 L 946.2822 1267.7778 M 760.6666 1453.3931 L 692.72675 1199.8375 M 760.6666 1453.3931 L 1014.2221 1521.3331 M 760.6666 1453.3931 L 692.72675 1706.9486 M 946.2822 1267.7778 L 1014.2221 1014.22205 M 946.2822 1267.7778 L 760.6666 1453.3931 M 946.2822 1267.7778 L 692.72675 1199.8375 M 946.2822 1267.7778 L 1014.2221 1521.3331 M 946.2822 1267.7778 L 1199.8378 1199.8375 M 692.72675 1199.8375 L 507.11108 1014.22205 M 692.72675 1199.8375 L 760.6666 946.28204 M 692.72675 1199.8375 L 439.17117 1267.7778 M 692.72675 1199.8375 L 760.6666 1453.3931 M 692.72675 1199.8375 L 946.2822 1267.7778 M 1014.2221 1521.3331 L 760.6666 1453.3931 M 1014.2221 1521.3331 L 946.2822 1267.7778 M 1014.2221 1521.3331 L 1267.7778 1453.3931 M 1014.2221 1521.3331 L 946.2822 1774.8888 M 1014.2221 1521.3331 L 1199.8378 1706.9486 M 1267.7778 1453.3931 L 1014.2221 1521.3331 M 1267.7778 1453.3931 L 1453.3933 1267.7778 M 1267.7778 1453.3931 L 1199.8378 1199.8375 M 1267.7778 1453.3931 L 1521.3333 1521.3331 M 1267.7778 1453.3931 L 1199.8378 1706.9486 M 1453.3933 1267.7778 L 1521.3333 1014.22205 M 1453.3933 1267.7778 L 1267.7778 1453.3931 M 1453.3933 1267.7778 L 1199.8378 1199.8375 M 1453.3933 1267.7778 L 1521.3333 1521.3331 M 1453.3933 1267.7778 L 1706.9489 1199.8375 M 1199.8378 1199.8375 L 1014.2221 1014.22205 M 1199.8378 1199.8375 L 1267.7778 946.28204 M 1199.8378 1199.8375 L 946.2822 1267.7778 M 1199.8378 1199.8375 L 1267.7778 1453.3931 M 1199.8378 1199.8375 L 1453.3933 1267.7778 M 2028.4442 1014.22217 L 1774.8888 946.28204 M 2028.4442 1014.22217 L 1960.5043 760.6666 M 2028.4442 1014.22217 L 1960.5043 1267.7778 M 1521.3333 1521.3331 L 1267.7778 1453.3931 M 1521.3333 1521.3331 L 1453.3933 1267.7778 M 1521.3333 1521.3331 L 1774.8888 1453.3931 M 1521.3333 1521.3331 L 1453.3933 1774.8888 M 1521.3333 1521.3331 L 1706.9489 1706.9486 M 1774.8888 1453.3931 L 1521.3333 1521.3331 M 1774.8888 1453.3931 L 1960.5043 1267.7778 M 1774.8888 1453.3931 L 1706.9489 1199.8375 M 1774.8888 1453.3931 L 2028.4442 1521.3333 M 1774.8888 1453.3931 L 1706.9489 1706.9486 M 1960.5043 1267.7778 L 2028.4442 1014.22217 M 1960.5043 1267.7778 L 1774.8888 1453.3931 M 1960.5043 1267.7778 L 1706.9489 1199.8375 M 1960.5043 1267.7778 L 2028.4442 1521.3333 M 1706.9489 1199.8375 L 1521.3333 1014.22205 M 1706.9489 1199.8375 L 1774.8888 946.28204 M 1706.9489 1199.8375 L 1453.3933 1267.7778 M 1706.9489 1199.8375 L 1774.8888 1453.3931 M 1706.9489 1199.8375 L 1960.5043 1267.7778 M -321.4955 1706.9486 L -253.5555 1453.3931 M -321.4955 1706.9486 L -253.5555 1960.5043 M -321.4955 1706.9486 L -67.93989 1774.8887 M -253.5555 1960.5043 L -321.4955 1706.9486 M -253.5555 1960.5043 L 0.00003129244 2028.4442 M -253.5555 1960.5043 L -67.93989 1774.8887 M 0.00003129244 2028.4442 L -253.5555 1960.5043 M 0.00003129244 2028.4442 L 253.55557 1960.5043 M 0.00003129244 2028.4442 L -67.93989 1774.8887 M 253.55557 1960.5043 L 0.00003129244 2028.4442 M 253.55557 1960.5043 L 439.17117 1774.8888 M 253.55557 1960.5043 L 185.61566 1706.9486 M 253.55557 1960.5043 L 507.11108 2028.4442 M 439.17117 1774.8888 L 507.11108 1521.3331 M 439.17117 1774.8888 L 253.55557 1960.5043 M 439.17117 1774.8888 L 185.61566 1706.9486 M 439.17117 1774.8888 L 507.11108 2028.4442 M 439.17117 1774.8888 L 692.72675 1706.9486 M 185.61566 1706.9486 L 0.00003129244 1521.3331 M 185.61566 1706.9486 L 253.55557 1453.3931 M 185.61566 1706.9486 L 253.55557 1960.5043 M 185.61566 1706.9486 L 439.17117 1774.8888 M 185.61566 1706.9486 L -67.93989 1774.8887 M -67.93989 1774.8887 L 0.00003129244 1521.3331 M -67.93989 1774.8887 L -321.4955 1706.9486 M -67.93989 1774.8887 L -253.5555 1960.5043 M -67.93989 1774.8887 L 0.00003129244 2028.4442 M -67.93989 1774.8887 L 185.61566 1706.9486 M 507.11108 2028.4442 L 253.55557 1960.5043 M 507.11108 2028.4442 L 439.17117 1774.8888 M 507.11108 2028.4442 L 760.6666 1960.5043 M 760.6666 1960.5043 L 507.11108 2028.4442 M 760.6666 1960.5043 L 946.2822 1774.8888 M 760.6666 1960.5043 L 692.72675 1706.9486 M 760.6666 1960.5043 L 1014.2221 2028.4442 M 946.2822 1774.8888 L 1014.2221 1521.3331 M 946.2822 1774.8888 L 760.6666 1960.5043 M 946.2822 1774.8888 L 692.72675 1706.9486 M 946.2822 1774.8888 L 1014.2221 2028.4442 M 946.2822 1774.8888 L 1199.8378 1706.9486 M 692.72675 1706.9486 L 507.11108 1521.3331 M 692.72675 1706.9486 L 760.6666 1453.3931 M 692.72675 1706.9486 L 439.17117 1774.8888 M 692.72675 1706.9486 L 760.6666 1960.5043 M 692.72675 1706.9486 L 946.2822 1774.8888 M 1014.2221 2028.4442 L 760.6666 1960.5043 M 1014.2221 2028.4442 L 946.2822 1774.8888 M 1014.2221 2028.4442 L 1267.7778 1960.5043 M 1267.7778 1960.5043 L 1014.2221 2028.4442 M 1267.7778 1960.5043 L 1453.3933 1774.8888 M 1267.7778 1960.5043 L 1199.8378 1706.9486 M 1267.7778 1960.5043 L 1521.3333 2028.4442 M 1453.3933 1774.8888 L 1521.3333 1521.3331 M 1453.3933 1774.8888 L 1267.7778 1960.5043 M 1453.3933 1774.8888 L 1199.8378 1706.9486 M 1453.3933 1774.8888 L 1521.3333 2028.4442 M 1453.3933 1774.8888 L 1706.9489 1706.9486 M 1199.8378 1706.9486 L 1014.2221 1521.3331 M 1199.8378 1706.9486 L 1267.7778 1453.3931 M 1199.8378 1706.9486 L 946.2822 1774.8888 M 1199.8378 1706.9486 L 1267.7778 1960.5043 M 1199.8378 1706.9486 L 1453.3933 1774.8888 M 2028.4442 1521.3333 L 1774.8888 1453.3931 M 2028.4442 1521.3333 L 1960.5043 1267.7778 M 2028.4442 1521.3333 L 1960.5043 1774.8888 M 1521.3333 2028.4442 L 1267.7778 1960.5043 M 1521.3333 2028.4442 L 1453.3933 1774.8888 M 1521.3333 2028.4442 L 1774.8888 1960.5043 M 1774.8888 1960.5043 L 1521.3333 2028.4442 M 1774.8888 1960.5043 L 1960.5043 1774.8888 M 1774.8888 1960.5043 L 1706.9489 1706.9486 M 1960.5043 1774.8888 L 2028.4442 1521.3333 M 1960.5043 1774.8888 L 1774.8888 1960.5043 M 1960.5043 1774.8888 L 1706.9489 1706.9486 M 1706.9489 1706.9486 L 1521.3333 1521.3331 M 1706.9489 1706.9486 L 1774.8888 1453.3931 M 1706.9489 1706.9486 L 1453.3933 1774.8888 M 1706.9489 1706.9486 L 1774.8888 1960.5043 M 1706.9489 1706.9486 L 1960.5043 1774.8888 "/>
<circle fill="#000" cx="253.55554" cy="-67.93994" r="131.25"/>
<circle fill="#FFF" cx="-67.93998" cy="-253.5556" r="131.25"/>
</svg>

