<?xml version="1.0" encoding="UTF-8"?>
<svg xmlns="http://www.w3.org/2000/svg" viewBox="-683.3611 -683.3611 1366.7222 1366.7222">
<path stroke="#DCB35C" stroke-linecap="round" stroke-width="352.5" fill="none" d="M -0.000022166529 -507.11105 L 253.55554 -439.17102 M -0.000022166529 -507.11105 L -253.55548 -439.17105 M 253.55554 -439.17102 L -0.000022166529 -507.11105 M 253.55554 -439.17102 L 439.17105 -253.55551 M 439.17105 -253.55551 L 253.55554 -439.17102 M 439.17105 -253.55551 L 507.11105 0 M 507.11105 0 L 439.17105 -253.55551 M 507.11105 0 L 439.17102 253.55554 M 439.17102 253.55554 L 507.11105 0 M 439.17102 253.55554 L 253.55554 439.17102 M 253.55554 439.17102 L 439.17102 253.55554 M 253.55554 439.17102 L -0.000022166529 507.11105 M -0.000022166529 507.11105 L 253.55554 439.17102 M -0.000022166529 507.11105 L -253.55544 439.1711 M -253.55544 439.1711 L -0.000022166529 507.11105 M -253.55544 439.1711 L -439.1711 253.55544 M -439.1711 253.55544 L -253.55544 439.1711 M -439.1711 253.55544 L -507.11105 -0.000044333057 M -507.11105 -0.000044333057 L -439.1711 253.55544 M -507.11105 -0.000044333057 L -439.17102 -253.55551 M -439.17102 -253.55551 L -507.11105 -0.000044333057 M -439.17102 -253.55551 L -253.55548 -439.17105 M -253.55548 -439.17105 L -0.000022166529 -507.11105 M -253.55548 -439.17105 L -439.17102 -253.55551 "/>
<path stroke="#000" stroke-linecap="round" stroke-width="6" fill="none" d="M -0.000022166529 -507.11105 L 253.55554 -439.17102 M -0.000022166529 -507.11105 L -253.55548 -439.17105 M 253.55554 -439.17102 L -0.000022166529 -507.11105 M 253.55554 -439.17102 L 439.17105 -253.55551 M 439.17105 -253.55551 L 253.55554 -439.17102 M 439.17105 -253.55551 L 507.11105 0 M 507.11105 0 L 439.17105 -253.55551 M 507.11105 0 L 439.17102 253.55554 M 439.17102 253.55554 L 507.11105 0 M 439.17102 253.55554 L 253.55554 439.17102 M 253.55554 439.17102 L 439.17102 253.55554 M 253.55554 439.17102 L -0.000022166529 507.11105 M -0.000022166529 507.11105 L 253.55554 439.17102 M -0.000022166529 507.11105 L -253.55544 439.1711 M -253.55544 439.1711 L -0.000022166529 507.11105 M -253.55544 439.1711 L -439.1711 253.55544 M -439.1711 253.55544 L -253.55544 439.1711 M -439.1711 253.55544 L -507.11105 -0.000044333057 M -507.11105 -0.000044333057 L -439.1711 253.55544 M -507.11105 -0.000044333057 L -439.17102 -253.55551 M -439.17102 -253.55551 L -507.11105 -0.000044333057 M -439.17102 -253.55551 L -253.55548 -439.17105 M -253.55548 -439.17105 L -0.000022166529 -507.11105 M -253.55548 -439.17105 L -439.17102 -253.55551 "/>
<circle fill="#000" cx="253.55554" cy="-439.17102" r="131.25"/>
<circle fill="#FFF" cx="253.55554" cy="439.17102" r="131.25"/>
</svg>

