<?xml version="1.0" encoding="UTF-8"?>
<svg xmlns="http://www.w3.org/2000/svg" viewBox="-1875 -431.25 3487.5 3135.8164">
<path stroke="#DCB35C" stroke-linecap="round" stroke-width="281.25" fill="none" d="M -787.5 0 L -525 0 M -787.5 0 L -918.75 227.33167 M -787.5 0 L -656.25 227.33167 M -525 0 L -787.5 0 M -525 0 L -262.5 0 M -525 0 L -656.25 227.33167 M -525 0 L -393.75 227.33167 M -262.5 0 L -525 0 M -262.5 0 L 0 0 M -262.5 0 L -393.75 227.33167 M -262.5 0 L -131.25 227.33167 M 0 0 L -262.5 0 M 0 0 L 262.5 0 M 0 0 L -131.25 227.33167 M 0 0 L 131.25 227.33167 M 262.5 0 L 0 0 M 262.5 0 L 525 0 M 262.5 0 L 131.25 227.33167 M 262.5 0 L 393.75 227.33167 M 525 0 L 262.5 0 M 525 0 L 393.75 227.33167 M 525 0 L 656.25 227.33167 M -918.75 227.33167 L -787.5 0 M -918.75 227.33167 L -656.25 227.33167 M -918.75 227.33167 L -1050 454.66333 M -918.75 227.33167 L -787.5 454.66333 M -656.25 227.33167 L -787.5 0 M -656.25 227.33167 L -525 0 M -656.25 227.33167 L -918.75 227.33167 M -656.25 227.33167 L -393.75 227.33167 M -656.25 227.33167 L -787.5 454.66333 M -656.25 227.33167 L -525 454.66333 M -393.75 227.33167 L -525 0 M -393.75 227.33167 L -262.5 0 M -393.75 227.33167 L -656.25 227.33167 M -393.75 227.33167 L -131.25 227.33167 M -393.75 227.33167 L -525 454.66333 M -393.75 227.33167 L -262.5 454.66333 M -131.25 227.33167 L -262.5 0 M -131.25 227.33167 L 0 0 M -131.25 227.33167 L -393.75 227.33167 M -131.25 227.33167 L 131.25 227.33167 M -131.25 227.33167 L -262.5 454.66333 M -131.25 227.33167 L 0 454.66333 M 131.25 227.33167 L 0 0 M 131.25 227.33167 L 262.5 0 M 131.25 227.33167 L -131.25 227.33167 M 131.25 227.33167 L 393.75 227.33167 M 131.25 227.33167 L 0 454.66333 M 131.25 227.33167 L 262.5 454.66333 M 393.75 227.33167 L 262.5 0 M 393.75 227.33167 L 525 0 M 393.75 227.33167 L 131.25 227.33167 M 393.75 227.33167 L 656.25 227.33167 M 393.75 227.33167 L 262.5 454.66333 M 393.75 227.33167 L 525 454.66333 M 656.25 227.33167 L 525 0 M 656.25 227.33167 L 393.75 227.33167 M 656.25 227.33167 L 525 454.66333 M 656.25 227.33167 L 787.5 454.66333 M -1050 454.66333 L -918.75 227.33167 M -1050 454.66333 L -787.5 454.66333 M -1050 454.66333 L -1181.25 681.995 M -1050 454.66333 L -918.75 681.995 M -787.5 454.66333 L -918.75 227.33167 M -787.5 454.66333 L -656.25 227.33167 M -787.5 454.66333 L -1050 454.66333 M -787.5 454.66333 L -525 454.66333 M -787.5 454.66333 L -918.75 681.995 M -787.5 454.66333 L -656.25 681.995 M -525 454.66333 L -656.25 227.33167 M -525 454.66333 L -393.75 227.33167 M -525 454.66333 L -787.5 454.66333 M -525 454.66333 L -262.5 454.66333 M -525 454.66333 L -656.25 681.995 M -525 454.66333 L -393.75 681.995 M -262.5 454.66333 L -393.75 227.33167 M -262.5 454.66333 L -131.25 227.33167 M -262.5 454.66333 L -525 454.66333 M -262.5 454.66333 L 0 454.66333 M -262.5 454.66333 L -393.75 681.995 M -262.5 454.66333 L -131.25 681.995 M 0 454.66333 L -131.25 227.33167 M 0 454.66333 L 131.25 227.33167 M 0 454.66333 L -262.5 454.66333 M 0 454.66333 L 262.5 454.66333 M 0 454.66333 L -131.25 681.995 M 0 454.66333 L 131.25 681.995 M 262.5 454.66333 L 131.25 227.33167 M 262.5 454.66333 L 393.75 227.33167 M 262.5 454.66333 L 0 454.66333 M 262.5 454.66333 L 525 454.66333 M 262.5 454.66333 L 131.25 681.995 M 262.5 454.66333 L 393.75 681.995 M 525 454.66333 L 393.75 227.33167 M 525 454.66333 L 656.25 227.33167 M 525 454.66333 L 262.5 454.66333 M 525 454.66333 L 787.5 454.66333 M 525 454.66333 L 393.75 681.995 M 525 454.66333 L 656.25 681.995 M 787.5 454.66333 L 656.25 227.33167 M 787.5 454.66333 L 525 454.66333 M 787.5 454.66333 L 656.25 681.995 M 787.5 454.66333 L 918.75 681.995 M -1181.25 681.995 L -1050 454.66333 M -1181.25 681.995 L -918.75 681.995 M -1181.25 681.995 L -1312.5 909.32666 M -1181.25 681.995 L -1050 909.32666 M -918.75 681.995 L -1050 454.66333 M -918.75 681.995 L -787.5 454.66333 M -918.75 681.995 L -1181.25 681.995 M -918.75 681.995 L -656.25 681.995 M -918.75 681.995 L -1050 909.32666 M -918.75 681.995 L -787.5 909.32666 M -656.25 681.995 L -787.5 454.66333 M -656.25 681.995 L -525 454.66333 M -656.25 681.995 L -918.75 681.995 M -656.25 681.995 L -393.75 681.995 M -656.25 681.995 L -787.5 909.32666 M -656.25 681.995 L -525 909.32666 M -393.75 681.995 L -525 454.66333 M -393.75 681.995 L -262.5 454.66333 M -393.75 681.995 L -656.25 681.995 M -393.75 681.995 L -131.25 681.995 M -393.75 681.995 L -525 909.32666 M -393.75 681.995 L -262.5 909.32666 M -131.25 681.995 L -262.5 454.66333 M -131.25 681.995 L 0 454.66333 M -131.25 681.995 L -393.75 681.995 M -131.25 681.995 L 131.25 681.995 M -131.25 681.995 L -262.5 909.32666 M -131.25 681.995 L 0 909.32666 M 131.25 681.995 L 0 454.66333 M 131.25 681.995 L 262.5 454.66333 M 131.25 681.995 L -131.25 681.995 M 131.25 681.995 L 393.75 681.995 M 131.25 681.995 L 0 909.32666 M 131.25 681.995 L 262.5 909.32666 M 393.75 681.995 L 262.5 454.66333 M 393.75 681.995 L 525 454.66333 M 393.75 681.995 L 131.25 681.995 M 393.75 681.995 L 656.25 681.995 M 393.75 681.995 L 262.5 909.32666 M 393.75 681.995 L 525 909.32666 M 656.25 681.995 L 525 454.66333 M 656.25 681.995 L 787.5 454.66333 M 656.25 681.995 L 393.75 681.995 M 656.25 681.995 L 918.75 681.995 M 656.25 681.995 L 525 909.32666 M 656.25 681.995 L 787.5 909.32666 M 918.75 681.995 L 787.5 454.66333 M 918.75 681.995 L 656.25 681.995 M 918.75 681.995 L 787.5 909.32666 M 918.75 681.995 L 1050 909.32666 M -1312.5 909.32666 L -1181.25 681.995 M -1312.5 909.32666 L -1050 909.32666 M -1312.5 909.32666 L -1443.75 1136.6582 M -1312.5 909.32666 L -1181.25 1136.6582 M -1050 909.32666 L -1181.25 681.995 M -1050 909.32666 L -918.75 681.995 M -1050 909.32666 L -1312.5 909.32666 M -1050 909.32666 L -787.5 909.32666 M -1050 909.32666 L -1181.25 1136.6582 M -1050 909.32666 L -918.75 1136.6582 M -787.5 909.32666 L -918.75 681.995 M -787.5 909.32666 L -656.25 681.995 M -787.5 909.32666 L -1050 909.32666 M -787.5 909.32666 L -525 909.32666 M -787.5 909.32666 L -918.75 1136.6582 M -787.5 909.32666 L -656.25 1136.6582 M -525 909.32666 L -656.25 681.995 M -525 909.32666 L -393.75 681.995 M -525 909.32666 L -787.5 909.32666 M -525 909.32666 L -262.5 909.32666 M -525 909.32666 L -656.25 1136.6582 M -525 909.32666 L -393.75 1136.6582 M -262.5 909.32666 L -393.75 681.995 M -262.5 909.32666 L -131.25 681.995 M -262.5 909.32666 L -525 909.32666 M -262.5 909.32666 L 0 909.32666 M -262.5 909.32666 L -393.75 1136.6582 M -262.5 909.32666 L -131.25 1136.6582 M 0 909.32666 L -131.25 681.995 M 0 909.32666 L 131.25 681.995 M 0 909.32666 L -262.5 909.32666 M 0 909.32666 L 262.5 909.32666 M 0 909.32666 L -131.25 1136.6582 M 0 909.32666 L 131.25 1136.6582 M 262.5 909.32666 L 131.25 681.995 M 262.5 909.32666 L 393.75 681.995 M 262.5 909.32666 L 0 909.32666 M 262.5 909.32666 L 525 909.32666 M 262.5 909.32666 L 131.25 1136.6582 M 262.5 909.32666 L 393.75 1136.6582 M 525 909.32666 L 393.75 681.995 M 525 909.32666 L 656.25 681.995 M 525 909.32666 L 262.5 909.32666 M 525 909.32666 L 787.5 909.32666 M 525 909.32666 L 393.75 1136.6582 M 525 909.32666 L 656.25 1136.6582 M 787.5 909.32666 L 656.25 681.995 M 787.5 909.32666 L 918.75 681.995 M 787.5 909.32666 L 525 909.32666 M 787.5 909.32666 L 1050 909.32666 M 787.5 909.32666 L 656.25 1136.6582 M 787.5 909.32666 L 918.75 1136.6582 M 1050 909.32666 L 918.75 681.995 M 1050 909.32666 L 787.5 909.32666 M 1050 909.32666 L 918.75 1136.6582 M 1050 909.32666 L 1181.25 1136.6582 M -1443.75 1136.6582 L -1312.5 909.32666 M -1443.75 1136.6582 L -1181.25 1136.6582 M -1443.75 1136.6582 L -1312.5 1363.99 M -1181.25 1136.6582 L -1312.5 909.32666 M -1181.25 1136.6582 L -1050 909.32666 M -1181.25 1136.6582 L -1443.75 1136.6582 M -1181.25 1136.6582 L -918.75 1136.6582 M -1181.25 1136.6582 L -1312.5 1363.99 M -1181.25 1136.6582 L -1050 1363.99 M -918.75 1136.6582 L -1050 909.32666 M -918.75 1136.6582 L -787.5 909.32666 M -918.75 1136.6582 L -1181.25 1136.6582 M -918.75 1136.6582 L -656.25 1136.6582 M -918.75 1136.6582 L -1050 1363.99 M -918.75 1136.6582 L -787.5 1363.99 M -656.25 1136.6582 L -787.5 909.32666 M -656.25 1136.6582 L -525 909.32666 M -656.25 1136.6582 L -918.75 1136.6582 M -656.25 1136.6582 L -393.75 1136.6582 M -656.25 1136.6582 L -787.5 1363.99 M -656.25 1136.6582 L -525 1363.99 M -393.75 1136.6582 L -525 909.32666 M -393.75 1136.6582 L -262.5 909.32666 M -393.75 1136.6582 L -656.25 1136.6582 M -393.75 1136.6582 L -131.25 1136.6582 M -393.75 1136.6582 L -525 1363.99 M -393.75 1136.6582 L -262.5 1363.99 M -131.25 1136.6582 L -262.5 909.32666 M -131.25 1136.6582 L 0 909.32666 M -131.25 1136.6582 L -393.75 1136.6582 M -131.25 1136.6582 L 131.25 1136.6582 M -131.25 1136.6582 L -262.5 1363.99 M -131.25 1136.6582 L 0 1363.99 M 131.25 1136.6582 L 0 909.32666 M 131.25 1136.6582 L 262.5 909.32666 M 131.25 1136.6582 L -131.25 1136.6582 M 131.25 1136.6582 L 393.75 1136.6582 M 131.25 1136.6582 L 0 1363.99 M 131.25 1136.6582 L 262.5 1363.99 M 393.75 1136.6582 L 262.5 909.32666 M 393.75 1136.6582 L 525 909.32666 M 393.75 1136.6582 L 131.25 1136.6582 M 393.75 1136.6582 L 656.25 1136.6582 M 393.75 1136.6582 L 262.5 1363.99 M 393.75 1136.6582 L 525 1363.99 M 656.25 1136.6582 L 525 909.32666 M 656.25 1136.6582 L 787.5 909.32666 M 656.25 1136.6582 L 393.75 1136.6582 M 656.25 1136.6582 L 918.75 1136.6582 M 656.25 1136.6582 L 525 1363.99 M 656.25 1136.6582 L 787.5 1363.99 M 918.75 1136.6582 L 787.5 909.32666 M 918.75 1136.6582 L 1050 909.32666 M 918.75 1136.6582 L 656.25 1136.6582 M 918.75 1136.6582 L 1181.25 1136.6582 M 918.75 1136.6582 L 787.5 1363.99 M 918.75 1136.6582 L 1050 1363.99 M 1181.25 1136.6582 L 1050 909.32666 M 1181.25 1136.6582 L 918.75 1136.6582 M 1181.25 1136.6582 L 1050 1363.99 M -1312.5 1363.99 L -1443.75 1136.6582 M -1312.5 1363.99 L -1181.25 1136.6582 M -1312.5 1363.99 L -1050 1363.99 M -1312.5 1363.99 L -1181.25 1591.3215 M -1050 1363.99 L -1181.25 1136.6582 M -1050 1363.99 L -918.75 1136.6582 M -1050 1363.99 L -1312.5 1363.99 M -1050 1363.99 L -787.5 1363.99 M -1050 1363.99 L -1181.25 1591.3215 M -1050 1363.99 L -918.75 1591.3215 M -787.5 1363.99 L -918.75 1136.6582 M -787.5 1363.99 L -656.25 1136.6582 M -787.5 1363.99 L -1050 1363.99 M -787.5 1363.99 L -525 1363.99 M -787.5 1363.99 L -918.75 1591.3215 M -787.5 1363.99 L -656.25 1591.3215 M -525 1363.99 L -656.25 1136.6582 M -525 1363.99 L -393.75 1136.6582 M -525 1363.99 L -787.5 1363.99 M -525 1363.99 L -262.5 1363.99 M -525 1363.99 L -656.25 1591.3215 M -525 1363.99 L -393.75 1591.3215 M -262.5 1363.99 L -393.75 1136.6582 M -262.5 1363.99 L -131.25 1136.6582 M -262.5 1363.99 L -525 1363.99 M -262.5 1363.99 L 0 1363.99 M -262.5 1363.99 L -393.75 1591.3215 M -262.5 1363.99 L -131.25 1591.3215 M 0 1363.99 L -131.25 1136.6582 M 0 1363.99 L 131.25 1136.6582 M 0 1363.99 L -262.5 1363.99 M 0 1363.99 L 262.5 1363.99 M 0 1363.99 L -131.25 1591.3215 M 0 1363.99 L 131.25 1591.3215 M 262.5 1363.99 L 131.25 1136.6582 M 262.5 1363.99 L 393.75 1136.6582 M 262.5 1363.99 L 0 1363.99 M 262.5 1363.99 L 525 1363.99 M 262.5 1363.99 L 131.25 1591.3215 M 262.5 1363.99 L 393.75 1591.3215 M 525 1363.99 L 393.75 1136.6582 M 525 1363.99 L 656.25 1136.6582 M 525 1363.99 L 262.5 1363.99 M 525 1363.99 L 787.5 1363.99 M 525 1363.99 L 393.75 1591.3215 M 525 1363.99 L 656.25 1591.3215 M 787.5 1363.99 L 656.25 1136.6582 M 787.5 1363.99 L 918.75 1136.6582 M 787.5 1363.99 L 525 1363.99 M 787.5 1363.99 L 1050 1363.99 M 787.5 1363.99 L 656.25 1591.3215 M 787.5 1363.99 L 918.75 1591.3215 M 1050 1363.99 L 918.75 1136.6582 M 1050 1363.99 L 1181.25 1136.6582 M 1050 1363.99 L 787.5 1363.99 M 1050 1363.99 L 918.75 1591.3215 M -1181.25 1591.3215 L -1312.5 1363.99 M -1181.25 1591.3215 L -1050 1363.99 M -1181.25 1591.3215 L -918.75 1591.3215 M -1181.25 1591.3215 L -1050 1818.6533 M -918.75 1591.3215 L -1050 1363.99 M -918.75 1591.3215 L -787.5 1363.99 M -918.75 1591.3215 L -1181.25 1591.3215 M -918.75 1591.3215 L -656.25 1591.3215 M -918.75 1591.3215 L -1050 1818.6533 M -918.75 1591.3215 L -787.5 1818.6533 M -656.25 1591.3215 L -787.5 1363.99 M -656.25 1591.3215 L -525 1363.99 M -656.25 1591.3215 L -918.75 1591.3215 M -656.25 1591.3215 L -393.75 1591.3215 M -656.25 1591.3215 L -787.5 1818.6533 M -656.25 1591.3215 L -525 1818.6533 M -393.75 1591.3215 L -525 1363.99 M -393.75 1591.3215 L -262.5 1363.99 M -393.75 1591.3215 L -656.25 1591.3215 M -393.75 1591.3215 L -131.25 1591.3215 M -393.75 1591.3215 L -525 1818.6533 M -393.75 1591.3215 L -262.5 1818.6533 M -131.25 1591.3215 L -262.5 1363.99 M -131.25 1591.3215 L 0 1363.99 M -131.25 1591.3215 L -393.75 1591.3215 M -131.25 1591.3215 L 131.25 1591.3215 M -131.25 1591.3215 L -262.5 1818.6533 M -131.25 1591.3215 L 0 1818.6533 M 131.25 1591.3215 L 0 1363.99 M 131.25 1591.3215 L 262.5 1363.99 M 131.25 1591.3215 L -131.25 1591.3215 M 131.25 1591.3215 L 393.75 1591.3215 M 131.25 1591.3215 L 0 1818.6533 M 131.25 1591.3215 L 262.5 1818.6533 M 393.75 1591.3215 L 262.5 1363.99 M 393.75 1591.3215 L 525 1363.99 M 393.75 1591.3215 L 131.25 1591.3215 M 393.75 1591.3215 L 656.25 1591.3215 M 393.75 1591.3215 L 262.5 1818.6533 M 393.75 1591.3215 L 525 1818.6533 M 656.25 1591.3215 L 525 1363.99 M 656.25 1591.3215 L 787.5 1363.99 M 656.25 1591.3215 L 393.75 1591.3215 M 656.25 1591.3215 L 918.75 1591.3215 M 656.25 1591.3215 L 525 1818.6533 M 656.25 1591.3215 L 787.5 1818.6533 M 918.75 1591.3215 L 787.5 1363.99 M 918.75 1591.3215 L 1050 1363.99 M 918.75 1591.3215 L 656.25 1591.3215 M 918.75 1591.3215 L 787.5 1818.6533 M -1050 1818.6533 L -1181.25 1591.3215 M -1050 1818.6533 L -918.75 1591.3215 M -1050 1818.6533 L -787.5 1818.6533 M -1050 1818.6533 L -918.75 2045.985 M -787.5 1818.6533 L -918.75 1591.3215 M -787.5 1818.6533 L -656.25 1591.3215 M -787.5 1818.6533 L -1050 1818.6533 M -787.5 1818.6533 L -525 1818.6533 M -787.5 1818.6533 L -918.75 2045.985 M -787.5 1818.6533 L -656.25 2045.985 M -525 1818.6533 L -656.25 1591.3215 M -525 1818.6533 L -393.75 1591.3215 M -525 1818.6533 L -787.5 1818.6533 M -525 1818.6533 L -262.5 1818.6533 M -525 1818.6533 L -656.25 2045.985 M -525 1818.6533 L -393.75 2045.985 M -262.5 1818.6533 L -393.75 1591.3215 M -262.5 1818.6533 L -131.25 1591.3215 M -262.5 1818.6533 L -525 1818.6533 M -262.5 1818.6533 L 0 1818.6533 M -262.5 1818.6533 L -393.75 2045.985 M -262.5 1818.6533 L -131.25 2045.985 M 0 1818.6533 L -131.25 1591.3215 M 0 1818.6533 L 131.25 1591.3215 M 0 1818.6533 L -262.5 1818.6533 M 0 1818.6533 L 262.5 1818.6533 M 0 1818.6533 L -131.25 2045.985 M 0 1818.6533 L 131.25 2045.985 M 262.5 1818.6533 L 131.25 1591.3215 M 262.5 1818.6533 L 393.75 1591.3215 M 262.5 1818.6533 L 0 1818.6533 M 262.5 1818.6533 L 525 1818.6533 M 262.5 1818.6533 L 131.25 2045.985 M 262.5 1818.6533 L 393.75 2045.985 M 525 1818.6533 L 393.75 1591.3215 M 525 1818.6533 L 656.25 1591.3215 M 525 1818.6533 L 262.5 1818.6533 M 525 1818.6533 L 787.5 1818.6533 M 525 1818.6533 L 393.75 2045.985 M 525 1818.6533 L 656.25 2045.985 M 787.5 1818.6533 L 656.25 1591.3215 M 787.5 1818.6533 L 918.75 1591.3215 M 787.5 1818.6533 L 525 1818.6533 M 787.5 1818.6533 L 656.25 2045.985 M -918.75 2045.985 L -1050 1818.6533 M -918.75 2045.985 L -787.5 1818.6533 M -918.75 2045.985 L -656.25 2045.985 M -918.75 2045.985 L -787.5 2273.3164 M -656.25 2045.985 L -787.5 1818.6533 M -656.25 2045.985 L -525 1818.6533 M -656.25 2045.985 L -918.75 2045.985 M -656.25 2045.985 L -393.75 2045.985 M -656.25 2045.985 L -787.5 2273.3164 M -656.25 2045.985 L -525 2273.3164 M -393.75 2045.985 L -525 1818.6533 M -393.75 2045.985 L -262.5 1818.6533 M -393.75 2045.985 L -656.25 2045.985 M -393.75 2045.985 L -131.25 2045.985 M -393.75 2045.985 L -525 2273.3164 M -393.75 2045.985 L -262.5 2273.3164 M -131.25 2045.985 L -262.5 1818.6533 M -131.25 2045.985 L 0 1818.6533 M -131.25 2045.985 L -393.75 2045.985 M -131.25 2045.985 L 131.25 2045.985 M -131.25 2045.985 L -262.5 2273.3164 M -131.25 2045.985 L 0 2273.3164 M 131.25 2045.985 L 0 1818.6533 M 131.25 2045.985 L 262.5 1818.6533 M 131.25 2045.985 L -131.25 2045.985 M 131.25 2045.985 L 393.75 2045.985 M 131.25 2045.985 L 0 2273.3164 M 131.25 2045.985 L 262.5 2273.3164 M 393.75 2045.985 L 262.5 1818.6533 M 393.75 2045.985 L 525 1818.6533 M 393.75 2045.985 L 131.25 2045.985 M 393.75 2045.985 L 656.25 2045.985 M 393.75 2045.985 L 262.5 2273.3164 M 393.75 2045.985 L 525 2273.3164 M 656.25 2045.985 L 525 1818.6533 M 656.25 2045.985 L 787.5 1818.6533 M 656.25 2045.985 L 393.75 2045.985 M 656.25 2045.985 L 525 2273.3164 M -787.5 2273.3164 L -918.75 2045.985 M -787.5 2273.3164 L -656.25 2045.985 M -787.5 2273.3164 L -525 2273.3164 M -525 2273.3164 L -656.25 2045.985 M -525 2273.3164 L -393.75 2045.985 M -525 2273.3164 L -787.5 2273.3164 M -525 2273.3164 L -262.5 2273.3164 M -262.5 2273.3164 L -393.75 2045.985 M -262.5 2273.3164 L -131.25 2045.985 M -262.5 2273.3164 L -525 2273.3164 M -262.5 2273.3164 L 0 2273.3164 M 0 2273.3164 L -131.25 2045.985 M 0 2273.3164 L 131.25 2045.985 M 0 2273.3164 L -262.5 2273.3164 M 0 2273.3164 L 262.5 2273.3164 M 262.5 2273.3164 L 131.25 2045.985 M 262.5 2273.3164 L 393.75 2045.985 M 262.5 2273.3164 L 0 2273.3164 M 262.5 2273.3164 L 525 2273.3164 M 525 2273.3164 L 393.75 2045.985 M 525 2273.3164 L 656.25 2045.985 M 525 2273.3164 L 262.5 2273.3164 "/>
<path stroke="#000" stroke-linecap="round" stroke-width="9.375" fill="none" d="M -787.5 0 L -525 0 M -787.5 0 L -918.75 227.33167 M -787.5 0 L -656.25 227.33167 M -525 0 L -787.5 0 M -525 0 L -262.5 0 M -525 0 L -656.25 227.33167 M -525 0 L -393.75 227.33167 M -262.5 0 L -525 0 M -262.5 0 L 0 0 M -262.5 0 L -393.75 227.33167 M -262.5 0 L -131.25 227.33167 M 0 0 L -262.5 0 M 0 0 L 262.5 0 M 0 0 L -131.25 227.33167 M 0 0 L 131.25 227.33167 M 262.5 0 L 0 0 M 262.5 0 L 525 0 M 262.5 0 L 131.25 227.33167 M 262.5 0 L 393.75 227.33167 M 525 0 L 262.5 0 M 525 0 L 393.75 227.33167 M 525 0 L 656.25 227.33167 M -918.75 227.33167 L -787.5 0 M -918.75 227.33167 L -656.25 227.33167 M -918.75 227.33167 L -1050 454.66333 M -918.75 227.33167 L -787.5 454.66333 M -656.25 227.33167 L -787.5 0 M -656.25 227.33167 L -525 0 M -656.25 227.33167 L -918.75 227.33167 M -656.25 227.33167 L -393.75 227.33167 M -656.25 227.33167 L -787.5 454.66333 M -656.25 227.33167 L -525 454.66333 M -393.75 227.33167 L -525 0 M -393.75 227.33167 L -262.5 0 M -393.75 227.33167 L -656.25 227.33167 M -393.75 227.33167 L -131.25 227.33167 M -393.75 227.33167 L -525 454.66333 M -393.75 227.33167 L -262.5 454.66333 M -131.25 227.33167 L -262.5 0 M -131.25 227.33167 L 0 0 M -131.25 227.33167 L -393.75 227.33167 M -131.25 227.33167 L 131.25 227.33167 M -131.25 227.33167 L -262.5 454.66333 M -131.25 227.33167 L 0 454.66333 M 131.25 227.33167 L 0 0 M 131.25 227.33167 L 262.5 0 M 131.25 227.33167 L -131.25 227.33167 M 131.25 227.33167 L 393.75 227.33167 M 131.25 227.33167 L 0 454.66333 M 131.25 227.33167 L 262.5 454.66333 M 393.75 227.33167 L 262.5 0 M 393.75 227.33167 L 525 0 M 393.75 227.33167 L 131.25 227.33167 M 393.75 227.33167 L 656.25 227.33167 M 393.75 227.33167 L 262.5 454.66333 M 393.75 227.33167 L 525 454.66333 M 656.25 227.33167 L 525 0 M 656.25 227.33167 L 393.75 227.33167 M 656.25 227.33167 L 525 454.66333 M 656.25 227.33167 L 787.5 454.66333 M -1050 454.66333 L -918.75 227.33167 M -1050 454.66333 L -787.5 454.66333 M -1050 454.66333 L -1181.25 681.995 M -1050 454.66333 L -918.75 681.995 M -787.5 454.66333 L -918.75 227.33167 M -787.5 454.66333 L -656.25 227.33167 M -787.5 454.66333 L -1050 454.66333 M -787.5 454.66333 L -525 454.66333 M -787.5 454.66333 L -918.75 681.995 M -787.5 454.66333 L -656.25 681.995 M -525 454.66333 L -656.25 227.33167 M -525 454.66333 L -393.75 227.33167 M -525 454.66333 L -787.5 454.66333 M -525 454.66333 L -262.5 454.66333 M -525 454.66333 L -656.25 681.995 M -525 454.66333 L -393.75 681.995 M -262.5 454.66333 L -393.75 227.33167 M -262.5 454.66333 L -131.25 227.33167 M -262.5 454.66333 L -525 454.66333 M -262.5 454.66333 L 0 454.66333 M -262.5 454.66333 L -393.75 681.995 M -262.5 454.66333 L -131.25 681.995 M 0 454.66333 L -131.25 227.33167 M 0 454.66333 L 131.25 227.33167 M 0 454.66333 L -262.5 454.66333 M 0 454.66333 L 262.5 454.66333 M 0 454.66333 L -131.25 681.995 M 0 454.66333 L 131.25 681.995 M 262.5 454.66333 L 131.25 227.33167 M 262.5 454.66333 L 393.75 227.33167 M 262.5 454.66333 L 0 454.66333 M 262.5 454.66333 L 525 454.66333 M 262.5 454.66333 L 131.25 681.995 M 262.5 454.66333 L 393.75 681.995 M 525 454.66333 L 393.75 227.33167 M 525 454.66333 L 656.25 227.33167 M 525 454.66333 L 262.5 454.66333 M 525 454.66333 L 787.5 454.66333 M 525 454.66333 L 393.75 681.995 M 525 454.66333 L 656.25 681.995 M 787.5 454.66333 L 656.25 227.33167 M 787.5 454.66333 L 525 454.66333 M 787.5 454.66333 L 656.25 681.995 M 787.5 454.66333 L 918.75 681.995 M -1181.25 681.995 L -1050 454.66333 M -1181.25 681.995 L -918.75 681.995 M -1181.25 681.995 L -1312.5 909.32666 M -1181.25 681.995 L -1050 909.32666 M -918.75 681.995 L -1050 454.66333 M -918.75 681.995 L -787.5 454.66333 M -918.75 681.995 L -1181.25 681.995 M -918.75 681.995 L -656.25 681.995 M -918.75 681.995 L -1050 909.32666 M -918.75 681.995 L -787.5 909.32666 M -656.25 681.995 L -787.5 454.66333 M -656.25 681.995 L -525 454.66333 M -656.25 681.995 L -918.75 681.995 M -656.25 681.995 L -393.75 681.995 M -656.25 681.995 L -787.5 909.32666 M -656.25 681.995 L -525 909.32666 M -393.75 681.995 L -525 454.66333 M -393.75 681.995 L -262.5 454.66333 M -393.75 681.995 L -656.25 681.995 M -393.75 681.995 L -131.25 681.995 M -393.75 681.995 L -525 909.32666 M -393.75 681.995 L -262.5 909.32666 M -131.25 681.995 L -262.5 454.66333 M -131.25 681.995 L 0 454.66333 M -131.25 681.995 L -393.75 681.995 M -131.25 681.995 L 131.25 681.995 M -131.25 681.995 L -262.5 909.32666 M -131.25 681.995 L 0 909.32666 M 131.25 681.995 L 0 454.66333 M 131.25 681.995 L 262.5 454.66333 M 131.25 681.995 L -131.25 681.995 M 131.25 681.995 L 393.75 681.995 M 131.25 681.995 L 0 909.32666 M 131.25 681.995 L 262.5 909.32666 M 393.75 681.995 L 262.5 454.66333 M 393.75 681.995 L 525 454.66333 M 393.75 681.995 L 131.25 681.995 M 393.75 681.995 L 656.25 681.995 M 393.75 681.995 L 262.5 909.32666 M 393.75 681.995 L 525 909.32666 M 656.25 681.995 L 525 454.66333 M 656.25 681.995 L 787.5 454.66333 M 656.25 681.995 L 393.75 681.995 M 656.25 681.995 L 918.75 681.995 M 656.25 681.995 L 525 909.32666 M 656.25 681.995 L 787.5 909.32666 M 918.75 681.995 L 787.5 454.66333 M 918.75 681.995 L 656.25 681.995 M 918.75 681.995 L 787.5 909.32666 M 918.75 681.995 L 1050 909.32666 M -1312.5 909.32666 L -1181.25 681.995 M -1312.5 909.32666 L -1050 909.32666 M -1312.5 909.32666 L -1443.75 1136.6582 M -1312.5 909.32666 L -1181.25 1136.6582 M -1050 909.32666 L -1181.25 681.995 M -1050 909.32666 L -918.75 681.995 M -1050 909.32666 L -1312.5 909.32666 M -1050 909.32666 L -787.5 909.32666 M -1050 909.32666 L -1181.25 1136.6582 M -1050 909.32666 L -918.75 1136.6582 M -787.5 909.32666 L -918.75 681.995 M -787.5 909.32666 L -656.25 681.995 M -787.5 909.32666 L -1050 909.32666 M -787.5 909.32666 L -525 909.32666 M -787.5 909.32666 L -918.75 1136.6582 M -787.5 909.32666 L -656.25 1136.6582 M -525 909.32666 L -656.25 681.995 M -525 909.32666 L -393.75 681.995 M -525 909.32666 L -787.5 909.32666 M -525 909.32666 L -262.5 909.32666 M -525 909.32666 L -656.25 1136.6582 M -525 909.32666 L -393.75 1136.6582 M -262.5 909.32666 L -393.75 681.995 M -262.5 909.32666 L -131.25 681.995 M -262.5 909.32666 L -525 909.32666 M -262.5 909.32666 L 0 909.32666 M -262.5 909.32666 L -393.75 1136.6582 M -262.5 909.32666 L -131.25 1136.6582 M 0 909.32666 L -131.25 681.995 M 0 909.32666 L 131.25 681.995 M 0 909.32666 L -262.5 909.32666 M 0 909.32666 L 262.5 909.32666 M 0 909.32666 L -131.25 1136.6582 M 0 909.32666 L 131.25 1136.6582 M 262.5 909.32666 L 131.25 681.995 M 262.5 909.32666 L 393.75 681.995 M 262.5 909.32666 L 0 909.32666 M 262.5 909.32666 L 525 909.32666 M 262.5 909.32666 L 131.25 1136.6582 M 262.5 909.32666 L 393.75 1136.6582 M 525 909.32666 L 393.75 681.995 M 525 909.32666 L 656.25 681.995 M 525 909.32666 L 262.5 909.32666 M 525 909.32666 L 787.5 909.32666 M 525 909.32666 L 393.75 1136.6582 M 525 909.32666 L 656.25 1136.6582 M 787.5 909.32666 L 656.25 681.995 M 787.5 909.32666 L 918.75 681.995 M 787.5 909.32666 L 525 909.32666 M 787.5 909.32666 L 1050 909.32666 M 787.5 909.32666 L 656.25 1136.6582 M 787.5 909.32666 L 918.75 1136.6582 M 1050 909.32666 L 918.75 681.995 M 1050 909.32666 L 787.5 909.32666 M 1050 909.32666 L 918.75 1136.6582 M 1050 909.32666 L 1181.25 1136.6582 M -1443.75 1136.6582 L -1312.5 909.32666 M -1443.75 1136.6582 L -1181.25 1136.6582 M -1443.75 1136.6582 L -1312.5 1363.99 M -1181.25 1136.6582 L -1312.5 909.32666 M -1181.25 1136.6582 L -1050 909.32666 M -1181.25 1136.6582 L -1443.75 1136.6582 M -1181.25 1136.6582 L -918.75 1136.6582 M -1181.25 1136.6582 L -1312.5 1363.99 M -1181.25 1136.6582 L -1050 1363.99 M -918.75 1136.6582 L -1050 909.32666 M -918.75 1136.6582 L -787.5 909.32666 M -918.75 1136.6582 L -1181.25 1136.6582 M -918.75 1136.6582 L -656.25 1136.6582 M -918.75 1136.6582 L -1050 1363.99 M -918.75 1136.6582 L -787.5 1363.99 M -656.25 1136.6582 L -787.5 909.32666 M -656.25 1136.6582 L -525 909.32666 M -656.25 1136.6582 L -918.75 1136.6582 M -656.25 1136.6582 L -393.75 1136.6582 M -656.25 1136.6582 L -787.5 1363.99 M -656.25 1136.6582 L -525 1363.99 M -393.75 1136.6582 L -525 909.32666 M -393.75 1136.6582 L -262.5 909.32666 M -393.75 1136.6582 L -656.25 1136.6582 M -393.75 1136.6582 L -131.25 1136.6582 M -393.75 1136.6582 L -525 1363.99 M -393.75 1136.6582 L -262.5 1363.99 M -131.25 1136.6582 L -262.5 909.32666 M -131.25 1136.6582 L 0 909.32666 M -131.25 1136.6582 L -393.75 1136.6582 M -131.25 1136.6582 L 131.25 1136.6582 M -131.25 1136.6582 L -262.5 1363.99 M -131.25 1136.6582 L 0 1363.99 M 131.25 1136.6582 L 0 909.32666 M 131.25 1136.6582 L 262.5 909.32666 M 131.25 1136.6582 L -131.25 1136.6582 M 131.25 1136.6582 L 393.75 1136.6582 M 131.25 1136.6582 L 0 1363.99 M 131.25 1136.6582 L 262.5 1363.99 M 393.75 1136.6582 L 262.5 909.32666 M 393.75 1136.6582 L 525 909.32666 M 393.75 1136.6582 L 131.25 1136.6582 M 393.75 1136.6582 L 656.25 1136.6582 M 393.75 1136.6582 L 262.5 1363.99 M 393.75 1136.6582 L 525 1363.99 M 656.25 1136.6582 L 525 909.32666 M 656.25 1136.6582 L 787.5 909.32666 M 656.25 1136.6582 L 393.75 1136.6582 M 656.25 1136.6582 L 918.75 1136.6582 M 656.25 1136.6582 L 525 1363.99 M 656.25 1136.6582 L 787.5 1363.99 M 918.75 1136.6582 L 787.5 909.32666 M 918.75 1136.6582 L 1050 909.32666 M 918.75 1136.6582 L 656.25 1136.6582 M 918.75 1136.6582 L 1181.25 1136.6582 M 918.75 1136.6582 L 787.5 1363.99 M 918.75 1136.6582 L 1050 1363.99 M 1181.25 1136.6582 L 1050 909.32666 M 1181.25 1136.6582 L 918.75 1136.6582 M 1181.25 1136.6582 L 1050 1363.99 M -1312.5 1363.99 L -1443.75 1136.6582 M -1312.5 1363.99 L -1181.25 1136.6582 M -1312.5 1363.99 L -1050 1363.99 M -1312.5 1363.99 L -1181.25 1591.3215 M -1050 1363.99 L -1181.25 1136.6582 M -1050 1363.99 L -918.75 1136.6582 M -1050 1363.99 L -1312.5 1363.99 M -1050 1363.99 L -787.5 1363.99 M -1050 1363.99 L -1181.25 1591.3215 M -1050 1363.99 L -918.75 1591.3215 M -787.5 1363.99 L -918.75 1136.6582 M -787.5 1363.99 L -656.25 1136.6582 M -787.5 1363.99 L -1050 1363.99 M -787.5 1363.99 L -525 1363.99 M -787.5 1363.99 L -918.75 1591.3215 M -787.5 1363.99 L -656.25 1591.3215 M -525 1363.99 L -656.25 1136.6582 M -525 1363.99 L -393.75 1136.6582 M -525 1363.99 L -787.5 1363.99 M -525 1363.99 L -262.5 1363.99 M -525 1363.99 L -656.25 1591.3215 M -525 1363.99 L -393.75 1591.3215 M -262.5 1363.99 L -393.75 1136.6582 M -262.5 1363.99 L -131.25 1136.6582 M -262.5 1363.99 L -525 1363.99 M -262.5 1363.99 L 0 1363.99 M -262.5 1363.99 L -393.75 1591.3215 M -262.5 1363.99 L -131.25 1591.3215 M 0 1363.99 L -131.25 1136.6582 M 0 1363.99 L 131.25 1136.6582 M 0 1363.99 L -262.5 1363.99 M 0 1363.99 L 262.5 1363.99 M 0 1363.99 L -131.25 1591.3215 M 0 1363.99 L 131.25 1591.3215 M 262.5 1363.99 L 131.25 1136.6582 M 262.5 1363.99 L 393.75 1136.6582 M 262.5 1363.99 L 0 1363.99 M 262.5 1363.99 L 525 1363.99 M 262.5 1363.99 L 131.25 1591.3215 M 262.5 1363.99 L 393.75 1591.3215 M 525 1363.99 L 393.75 1136.6582 M 525 1363.99 L 656.25 1136.6582 M 525 1363.99 L 262.5 1363.99 M 525 1363.99 L 787.5 1363.99 M 525 1363.99 L 393.75 1591.3215 M 525 1363.99 L 656.25 1591.3215 M 787.5 1363.99 L 656.25 1136.6582 M 787.5 1363.99 L 918.75 1136.6582 M 787.5 1363.99 L 525 1363.99 M 787.5 1363.99 L 1050 1363.99 M 787.5 1363.99 L 656.25 1591.3215 M 787.5 1363.99 L 918.75 1591.3215 M 1050 1363.99 L 918.75 1136.6582 M 1050 1363.99 L 1181.25 1136.6582 M 1050 1363.99 L 787.5 1363.99 M 1050 1363.99 L 918.75 1591.3215 M -1181.25 1591.3215 L -1312.5 1363.99 M -1181.25 1591.3215 L -1050 1363.99 M -1181.25 1591.3215 L -918.75 1591.3215 M -1181.25 1591.3215 L -1050 1818.6533 M -918.75 1591.3215 L -1050 1363.99 M -918.75 1591.3215 L -787.5 1363.99 M -918.75 1591.3215 L -1181.25 1591.3215 M -918.75 1591.3215 L -656.25 1591.3215 M -918.75 1591.3215 L -1050 1818.6533 M -918.75 1591.3215 L -787.5 1818.6533 M -656.25 1591.3215 L -787.5 1363.99 M -656.25 1591.3215 L -525 1363.99 M -656.25 1591.3215 L -918.75 1591.3215 M -656.25 1591.3215 L -393.75 1591.3215 M -656.25 1591.3215 L -787.5 1818.6533 M -656.25 1591.3215 L -525 1818.6533 M -393.75 1591.3215 L -525 1363.99 M -393.75 1591.3215 L -262.5 1363.99 M -393.75 1591.3215 L -656.25 1591.3215 M -393.75 1591.3215 L -131.25 1591.3215 M -393.75 1591.3215 L -525 1818.6533 M -393.75 1591.3215 L -262.5 1818.6533 M -131.25 1591.3215 L -262.5 1363.99 M -131.25 1591.3215 L 0 1363.99 M -131.25 1591.3215 L -393.75 1591.3215 M -131.25 1591.3215 L 131.25 1591.3215 M -131.25 1591.3215 L -262.5 1818.6533 M -131.25 1591.3215 L 0 1818.6533 M 131.25 1591.3215 L 0 1363.99 M 131.25 1591.3215 L 262.5 1363.99 M 131.25 1591.3215 L -131.25 1591.3215 M 131.25 1591.3215 L 393.75 1591.3215 M 131.25 1591.3215 L 0 1818.6533 M 131.25 1591.3215 L 262.5 1818.6533 M 393.75 1591.3215 L 262.5 1363.99 M 393.75 1591.3215 L 525 1363.99 M 393.75 1591.3215 L 131.25 1591.3215 M 393.75 1591.3215 L 656.25 1591.3215 M 393.75 1591.3215 L 262.5 1818.6533 M 393.75 1591.3215 L 525 1818.6533 M 656.25 1591.3215 L 525 1363.99 M 656.25 1591.3215 L 787.5 1363.99 M 656.25 1591.3215 L 393.75 1591.3215 M 656.25 1591.3215 L 918.75 1591.3215 M 656.25 1591.3215 L 525 1818.6533 M 656.25 1591.3215 L 787.5 1818.6533 M 918.75 1591.3215 L 787.5 1363.99 M 918.75 1591.3215 L 1050 1363.99 M 918.75 1591.3215 L 656.25 1591.3215 M 918.75 1591.3215 L 787.5 1818.6533 M -1050 1818.6533 L -1181.25 1591.3215 M -1050 1818.6533 L -918.75 1591.3215 M -1050 1818.6533 L -787.5 1818.6533 M -1050 1818.6533 L -918.75 2045.985 M -787.5 1818.6533 L -918.75 1591.3215 M -787.5 1818.6533 L -656.25 1591.3215 M -787.5 1818.6533 L -1050 1818.6533 M -787.5 1818.6533 L -525 1818.6533 M -787.5 1818.6533 L -918.75 2045.985 M -787.5 1818.6533 L -656.25 2045.985 M -525 1818.6533 L -656.25 1591.3215 M -525 1818.6533 L -393.75 1591.3215 M -525 1818.6533 L -787.5 1818.6533 M -525 1818.6533 L -262.5 1818.6533 M -525 1818.6533 L -656.25 2045.985 M -525 1818.6533 L -393.75 2045.985 M -262.5 1818.6533 L -393.75 1591.3215 M -262.5 1818.6533 L -131.25 1591.3215 M -262.5 1818.6533 L -525 1818.6533 M -262.5 1818.6533 L 0 1818.6533 M -262.5 1818.6533 L -393.75 2045.985 M -262.5 1818.6533 L -131.25 2045.985 M 0 1818.6533 L -131.25 1591.3215 M 0 1818.6533 L 131.25 1591.3215 M 0 1818.6533 L -262.5 1818.6533 M 0 1818.6533 L 262.5 1818.6533 M 0 1818.6533 L -131.25 2045.985 M 0 1818.6533 L 131.25 2045.985 M 262.5 1818.6533 L 131.25 1591.3215 M 262.5 1818.6533 L 393.75 1591.3215 M 262.5 1818.6533 L 0 1818.6533 M 262.5 1818.6533 L 525 1818.6533 M 262.5 1818.6533 L 131.25 2045.985 M 262.5 1818.6533 L 393.75 2045.985 M 525 1818.6533 L 393.75 1591.3215 M 525 1818.6533 L 656.25 1591.3215 M 525 1818.6533 L 262.5 1818.6533 M 525 1818.6533 L 787.5 1818.6533 M 525 1818.6533 L 393.75 2045.985 M 525 1818.6533 L 656.25 2045.985 M 787.5 1818.6533 L 656.25 1591.3215 M 787.5 1818.6533 L 918.75 1591.3215 M 787.5 1818.6533 L 525 1818.6533 M 787.5 1818.6533 L 656.25 2045.985 M -918.75 2045.985 L -1050 1818.6533 M -918.75 2045.985 L -787.5 1818.6533 M -918.75 2045.985 L -656.25 2045.985 M -918.75 2045.985 L -787.5 2273.3164 M -656.25 2045.985 L -787.5 1818.6533 M -656.25 2045.985 L -525 1818.6533 M -656.25 2045.985 L -918.75 2045.985 M -656.25 2045.985 L -393.75 2045.985 M -656.25 2045.985 L -787.5 2273.3164 M -656.25 2045.985 L -525 2273.3164 M -393.75 2045.985 L -525 1818.6533 M -393.75 2045.985 L -262.5 1818.6533 M -393.75 2045.985 L -656.25 2045.985 M -393.75 2045.985 L -131.25 2045.985 M -393.75 2045.985 L -525 2273.3164 M -393.75 2045.985 L -262.5 2273.3164 M -131.25 2045.985 L -262.5 1818.6533 M -131.25 2045.985 L 0 1818.6533 M -131.25 2045.985 L -393.75 2045.985 M -131.25 2045.985 L 131.25 2045.985 M -131.25 2045.985 L -262.5 2273.3164 M -131.25 2045.985 L 0 2273.3164 M 131.25 2045.985 L 0 1818.6533 M 131.25 2045.985 L 262.5 1818.6533 M 131.25 2045.985 L -131.25 2045.985 M 131.25 2045.985 L 393.75 2045.985 M 131.25 2045.985 L 0 2273.3164 M 131.25 2045.985 L 262.5 2273.3164 M 393.75 2045.985 L 262.5 1818.6533 M 393.75 2045.985 L 525 1818.6533 M 393.75 2045.985 L 131.25 2045.985 M 393.75 2045.985 L 656.25 2045.985 M 393.75 2045.985 L 262.5 2273.3164 M 393.75 2045.985 L 525 2273.3164 M 656.25 2045.985 L 525 1818.6533 M 656.25 2045.985 L 787.5 1818.6533 M 656.25 2045.985 L 393.75 2045.985 M 656.25 2045.985 L 525 2273.3164 M -787.5 2273.3164 L -918.75 2045.985 M -787.5 2273.3164 L -656.25 2045.985 M -787.5 2273.3164 L -525 2273.3164 M -525 2273.3164 L -656.25 2045.985 M -525 2273.3164 L -393.75 2045.985 M -525 2273.3164 L -787.5 2273.3164 M -525 2273.3164 L -262.5 2273.3164 M -262.5 2273.3164 L -393.75 2045.985 M -262.5 2273.3164 L -131.25 2045.985 M -262.5 2273.3164 L -525 2273.3164 M -262.5 2273.3164 L 0 2273.3164 M 0 2273.3164 L -131.25 2045.985 M 0 2273.3164 L 131.25 2045.985 M 0 2273.3164 L -262.5 2273.3164 M 0 2273.3164 L 262.5 2273.3164 M 262.5 2273.3164 L 131.25 2045.985 M 262.5 2273.3164 L 393.75 2045.985 M 262.5 2273.3164 L 0 2273.3164 M 262.5 2273.3164 L 525 2273.3164 M 525 2273.3164 L 393.75 2045.985 M 525 2273.3164 L 656.25 2045.985 M 525 2273.3164 L 262.5 2273.3164 "/>
</svg>

